<?xml version="1.0" encoding="UTF-8"?>
<svg id="_圖層_2" data-name="圖層 2" xmlns="http://www.w3.org/2000/svg" xmlns:xlink="http://www.w3.org/1999/xlink" viewBox="0 0 110 110">
  <defs>
    <style>
      .cls-1 {
        opacity: .7;
      }

      .cls-2 {
        clip-path: url(#clippath);
      }

      .cls-3 {
        fill: none;
      }

      .cls-4 {
        fill: #0e1c26;
      }
    </style>
    <clipPath id="clippath">
      <rect class="cls-3" x="14.5" y="13.5" width="81" height="83"/>
    </clipPath>
  </defs>
  <g id="_圖層_1-2" data-name="圖層 1">
    <g>
      <g class="cls-2">
        <g class="cls-1">
          <path class="cls-4" d="m81.35,28.61h-20.96c-.6,0-1.12-.39-1.29-.98-.52-1.85-2.21-3.14-4.11-3.14s-3.59,1.29-4.11,3.14c-.17.57-.69.98-1.29.98h-20.94c-.62,0-1.17-.43-1.3-1.05-.13-.61.17-1.24.74-1.5l26.34-12.43c.36-.17.77-.17,1.14,0l26.36,12.43c.56.26.87.89.74,1.5-.13.61-.68,1.05-1.3,1.05h-.02Zm-20.03-2.67h14.05l-20.38-9.62-20.38,9.61h14.05c1.11-2.47,3.59-4.11,6.33-4.11s5.22,1.65,6.33,4.11h0Z"/>
          <path class="cls-4" d="m54.99,35.75H21.14c-.74,0-1.34-.6-1.34-1.34v-7.14c0-.74.6-1.34,1.34-1.34h28.45c.42,0,.81.19,1.06.52.25.33.33.76.23,1.17-.13.44-.18.81-.18,1.16,0,2.37,1.93,4.29,4.29,4.29.74,0,1.34.6,1.34,1.34s-.6,1.34-1.34,1.34Zm-32.52-2.67h27.04c-.93-1.18-1.48-2.67-1.48-4.29v-.18h-25.56v4.47Z"/>
          <path class="cls-4" d="m88.86,35.75h-33.85c-.74,0-1.34-.6-1.34-1.34s.6-1.34,1.34-1.34c2.37,0,4.29-1.93,4.29-4.29,0-.35-.06-.72-.18-1.16-.12-.41-.04-.83.21-1.17.25-.33.64-.52,1.06-.52h28.45c.74,0,1.33.6,1.33,1.34v7.14c0,.74-.6,1.34-1.33,1.34h.01Zm-28.37-2.67h27.04v-4.47h-25.56v.18c0,1.62-.56,3.11-1.48,4.29Z"/>
          <path class="cls-4" d="m40.24,44.26h-13.49c-.74,0-1.34-.6-1.34-1.34v-8.5c0-.74.6-1.34,1.34-1.34h13.49c.74,0,1.34.6,1.34,1.34v8.5c0,.74-.6,1.34-1.34,1.34Zm-12.16-2.67h10.82v-5.83h-10.82v5.83Z"/>
          <path class="cls-4" d="m26.73,57.54c-.74,0-1.34-.6-1.34-1.34v-2.13c0-.74.6-1.34,1.34-1.34s1.34.6,1.34,1.34v2.13c0,.74-.6,1.34-1.34,1.34Z"/>
          <path class="cls-4" d="m26.73,68.48c-.74,0-1.34-.6-1.34-1.34v-3.64c0-.74.6-1.34,1.34-1.34s1.34.6,1.34,1.34v3.64c0,.74-.6,1.34-1.34,1.34Z"/>
          <path class="cls-4" d="m26.73,77.9c-.74,0-1.34-.6-1.34-1.34v-2.13c0-.74.6-1.34,1.34-1.34s1.34.6,1.34,1.34v2.13c0,.74-.6,1.34-1.34,1.34Z"/>
          <path class="cls-4" d="m40.24,84.38h-13.49c-.74,0-1.34-.6-1.34-1.34v-6.49c0-.74.6-1.34,1.34-1.34s1.34.6,1.34,1.34v5.15h10.82v-30.74h-10.82v3.11c0,.74-.6,1.34-1.34,1.34s-1.34-.6-1.34-1.34v-4.45c0-.74.6-1.34,1.34-1.34h13.49c.74,0,1.34.6,1.34,1.34v33.43c0,.74-.6,1.34-1.34,1.34h0Z"/>
          <path class="cls-4" d="m37.67,50.96h-8.37c-.74,0-1.34-.6-1.34-1.34v-6.7c0-.74.6-1.34,1.34-1.34h8.37c.74,0,1.34.6,1.34,1.34v6.7c0,.74-.6,1.34-1.34,1.34Zm-7.03-2.67h5.7v-4.03h-5.7v4.03Z"/>
          <path class="cls-4" d="m83.27,44.26h-13.49c-.74,0-1.34-.6-1.34-1.34v-8.5c0-.74.6-1.34,1.34-1.34h13.49c.74,0,1.34.6,1.34,1.34v8.5c0,.74-.6,1.34-1.34,1.34Zm-12.16-2.67h10.82v-5.83h-10.82v5.83Z"/>
          <path class="cls-4" d="m83.27,84.38h-13.49c-.74,0-1.34-.6-1.34-1.34v-33.43c0-.74.6-1.34,1.34-1.34h13.49c.74,0,1.34.6,1.34,1.34v3.64c0,.74-.6,1.34-1.34,1.34s-1.34-.6-1.34-1.34v-2.29h-10.82v30.74h10.82v-19.07c0-.74.6-1.34,1.34-1.34s1.34.6,1.34,1.34v20.42c0,.74-.6,1.34-1.34,1.34h0Z"/>
          <path class="cls-4" d="m80.71,50.96h-8.37c-.74,0-1.34-.6-1.34-1.34v-6.7c0-.74.6-1.34,1.34-1.34h8.37c.74,0,1.34.6,1.34,1.34v6.7c0,.74-.6,1.34-1.34,1.34Zm-7.03-2.67h5.7v-4.03h-5.7v4.03Z"/>
          <path class="cls-4" d="m61.75,44.26h-13.49c-.74,0-1.34-.6-1.34-1.34v-8.5c0-.74.6-1.34,1.34-1.34h13.49c.74,0,1.34.6,1.34,1.34v8.5c0,.74-.6,1.34-1.34,1.34Zm-12.16-2.67h10.82v-5.83h-10.82v5.83Z"/>
          <path class="cls-4" d="m61.75,84.38h-13.49c-.74,0-1.34-.6-1.34-1.34v-33.43c0-.74.6-1.34,1.34-1.34h13.49c.74,0,1.34.6,1.34,1.34v33.43c0,.74-.6,1.34-1.34,1.34Zm-12.16-2.67h10.82v-30.74h-10.82v30.74Z"/>
          <path class="cls-4" d="m59.19,50.96h-8.37c-.74,0-1.34-.6-1.34-1.34v-6.7c0-.74.6-1.34,1.34-1.34h8.37c.74,0,1.34.6,1.34,1.34v6.7c0,.74-.6,1.34-1.34,1.34Zm-7.03-2.67h5.7v-4.03h-5.7v4.03Z"/>
          <path class="cls-4" d="m88.17,90.44H21.83c-.74,0-1.34-.6-1.34-1.34v-6.06c0-.74.6-1.34,1.34-1.34h66.35c.74,0,1.33.6,1.33,1.34v6.06c0,.74-.6,1.34-1.33,1.34h-.01Zm-65-2.67h63.67v-3.39H23.17v3.39Z"/>
          <path class="cls-4" d="m94.17,96.5H15.84c-.74,0-1.34-.6-1.34-1.34v-6.06c0-.74.6-1.34,1.34-1.34h78.33c.74,0,1.33.6,1.33,1.34v6.06c0,.74-.6,1.34-1.33,1.34Zm-76.98-2.67h75.65v-3.39H17.17v3.39h.01Z"/>
        </g>
      </g>
      <rect class="cls-3" width="110" height="110"/>
    </g>
  </g>
</svg>