<?xml version="1.0" encoding="UTF-8"?>
<svg id="_圖層_2" data-name="圖層 2" xmlns="http://www.w3.org/2000/svg" xmlns:xlink="http://www.w3.org/1999/xlink" viewBox="0 0 110 110">
  <defs>
    <style>
      .cls-1 {
        opacity: .7;
      }

      .cls-2 {
        clip-path: url(#clippath);
      }

      .cls-3 {
        fill: none;
      }

      .cls-4 {
        fill: #0e1c26;
      }
    </style>
    <clipPath id="clippath">
      <rect class="cls-3" x="22.5" y="15" width="65" height="80"/>
    </clipPath>
  </defs>
  <g id="_圖層_1-2" data-name="圖層 1">
    <g>
      <g class="cls-2">
        <g class="cls-1">
          <path class="cls-4" d="m64.62,95c-.2,0-.4-.05-.58-.14-.44-.23-.71-.67-.71-1.15v-10.14c0-.71.58-1.3,1.29-1.3h13.75c.56,0,1.06.36,1.24.89.18.54-.01,1.12-.46,1.45l-13.75,10.14c-.23.17-.5.25-.77.25Zm1.29-10.14v6.29l8.51-6.29h-8.51Z"/>
          <path class="cls-4" d="m34.3,49.68c-.71,0-1.29-.58-1.29-1.3v-4c0-.71.58-1.3,1.29-1.3s1.29.58,1.29,1.3v4c0,.71-.58,1.3-1.29,1.3Z"/>
          <path class="cls-4" d="m43.98,49.68c-.71,0-1.29-.58-1.29-1.3v-4c0-.71.58-1.3,1.29-1.3s1.29.58,1.29,1.3v4c0,.71-.58,1.3-1.29,1.3Z"/>
          <path class="cls-4" d="m39.22,36.74h-.12c-1.14.06-2.84-.44-4.13-2.88-.63-1.2-.96-2.61-.96-4.08v-.13c0-1.32.71-2.54,1.85-3.17.72-.4,1.89-.88,3.26-.88,1.15,0,2.36.39,3.52,1.14,1.03.67,1.64,1.81,1.64,3.04,0,1.49-.35,2.9-.99,4.12-1.25,2.35-2.89,2.86-4.07,2.86h0Zm-.12-2.6c.76-.01,1.38-.48,1.91-1.48.44-.83.68-1.83.68-2.89,0-.36-.17-.68-.46-.86-.51-.33-1.29-.73-2.1-.73s-1.55.31-2.02.56c-.32.18-.51.51-.51.89v.13c0,1.06.23,2.05.67,2.87.53,1.01,1.16,1.5,1.84,1.5Z"/>
          <path class="cls-4" d="m48.02,49.68h-17.75c-.71,0-1.29-.58-1.29-1.3v-5.07c0-2.95,2.4-5.35,5.33-5.35h9.68c2.95,0,5.34,2.4,5.34,5.35v5.07c0,.71-.58,1.3-1.29,1.3h-.01Zm-16.47-2.6h15.18v-3.77c0-1.52-1.23-2.75-2.76-2.75h-9.68c-1.52,0-2.75,1.24-2.75,2.76v3.77h.01Z"/>
          <path class="cls-4" d="m54.49,55.2h-30.7c-.71,0-1.29-.58-1.29-1.3V21.37c0-.71.58-1.3,1.29-1.3h30.7c.71,0,1.29.58,1.29,1.3v4.46c0,.71-.58,1.3-1.29,1.3s-1.29-.58-1.29-1.3v-3.17h-28.11v29.94h28.11v-20.29c0-.71.58-1.3,1.29-1.3s1.29.58,1.29,1.3v21.58c0,.71-.58,1.3-1.29,1.3Z"/>
          <path class="cls-4" d="m43.98,60.08h-9.68c-.71,0-1.29-.58-1.29-1.3s.58-1.3,1.29-1.3h9.68c.71,0,1.29.58,1.29,1.3s-.58,1.3-1.29,1.3Z"/>
          <path class="cls-4" d="m49.44,65.71h-20.6c-.71,0-1.29-.58-1.29-1.3s.58-1.3,1.29-1.3h20.6c.71,0,1.29.58,1.29,1.3s-.58,1.3-1.29,1.3Z"/>
          <path class="cls-4" d="m49.44,71.33h-20.6c-.71,0-1.29-.58-1.29-1.3s.58-1.3,1.29-1.3h20.6c.71,0,1.29.58,1.29,1.3s-.58,1.3-1.29,1.3Z"/>
          <path class="cls-4" d="m49.44,76.96h-20.6c-.71,0-1.29-.58-1.29-1.3s.58-1.3,1.29-1.3h20.6c.71,0,1.29.58,1.29,1.3s-.58,1.3-1.29,1.3Z"/>
          <path class="cls-4" d="m49.44,82.6h-20.6c-.71,0-1.29-.58-1.29-1.3s.58-1.3,1.29-1.3h20.6c.71,0,1.29.58,1.29,1.3s-.58,1.3-1.29,1.3Z"/>
          <path class="cls-4" d="m75.22,58.21c-.26,0-.53-.08-.77-.25-.57-.43-.7-1.24-.27-1.81l.81-1.1c.43-.57,1.23-.7,1.8-.27s.7,1.24.27,1.81l-.81,1.1c-.25.35-.64.52-1.05.52h.01Z"/>
          <path class="cls-4" d="m69.48,69.79c-1.06,0-2.1-.35-2.98-1-1.03-.76-1.73-1.87-1.97-3.11-.24-1.27.05-2.54.8-3.55.43-.57,1.23-.7,1.8-.27.57.43.7,1.24.27,1.81-.32.43-.44.98-.33,1.54.11.6.45,1.12.96,1.5.51.38,1.12.55,1.71.48.56-.07,1.05-.33,1.37-.76.68-.92.39-2.27-.63-3.02-2.17-1.61-2.69-4.6-1.17-6.65.75-1.01,1.86-1.65,3.15-1.81,1.26-.14,2.51.2,3.55.96,1.03.76,1.73,1.87,1.96,3.11.24,1.27-.05,2.54-.8,3.55-.43.57-1.23.7-1.8.27s-.7-1.24-.27-1.81c.32-.43.44-.98.33-1.54-.11-.6-.45-1.12-.96-1.5-.51-.38-1.1-.55-1.71-.48-.56.07-1.04.33-1.36.76-.68.92-.39,2.27.63,3.04,2.17,1.61,2.7,4.6,1.18,6.65-.75,1.01-1.86,1.65-3.15,1.81-.19.02-.38.04-.56.04h0Z"/>
          <path class="cls-4" d="m66.35,70.27c-.26,0-.54-.08-.77-.25-.57-.43-.7-1.24-.27-1.81l.91-1.24c.43-.57,1.23-.7,1.8-.27s.7,1.24.27,1.81l-.91,1.24c-.25.35-.64.52-1.05.52h.01Z"/>
          <path class="cls-4" d="m73.23,26.2c-.44,0-.85-.21-1.1-.62l-.57-.92c-.38-.61-.19-1.4.43-1.79.61-.38,1.4-.19,1.78.43l.57.92c.38.61.19,1.4-.43,1.79-.21.13-.45.19-.68.19Z"/>
          <path class="cls-4" d="m76.05,40.98c-.89,0-1.78-.11-2.67-.31-2.98-.71-5.51-2.54-7.11-5.15-3.31-5.39-1.64-12.5,3.74-15.82,2.61-1.61,5.69-2.11,8.67-1.4,2.98.71,5.51,2.54,7.11,5.15,3.32,5.39,1.64,12.5-3.74,15.82-1.83,1.13-3.89,1.71-6,1.71Zm-.04-20.42c-1.63,0-3.23.45-4.64,1.33-4.17,2.57-5.47,8.07-2.9,12.25,1.25,2.02,3.21,3.44,5.51,3.99,2.3.55,4.69.17,6.71-1.08,2.02-1.25,3.43-3.21,3.98-5.52.55-2.31.17-4.7-1.08-6.73-1.25-2.02-3.21-3.44-5.51-3.99-.69-.17-1.38-.24-2.07-.24h0Z"/>
          <path class="cls-4" d="m77.26,35.77c-.27,0-.55-.02-.82-.08-1.08-.21-1.98-.85-2.55-1.76-.38-.61-.19-1.4.43-1.79.6-.38,1.4-.19,1.78.43.18.3.49.5.85.58.4.08.83,0,1.2-.23.74-.45,1.01-1.36.62-2-.19-.3-.49-.5-.86-.58-.4-.08-.83,0-1.2.23-1.95,1.2-4.48.67-5.62-1.19-1.15-1.87-.5-4.37,1.46-5.57,1.95-1.2,4.48-.67,5.62,1.19.38.61.19,1.4-.43,1.79-.61.38-1.4.19-1.78-.43-.4-.64-1.32-.81-2.05-.35-.74.45-1.01,1.36-.62,2,.39.64,1.32.81,2.05.35.93-.57,2.02-.77,3.06-.57,1.08.21,1.98.85,2.55,1.76,1.15,1.87.5,4.37-1.46,5.57-.69.43-1.46.64-2.24.64h0Z"/>
          <path class="cls-4" d="m79.47,36.37c-.44,0-.85-.21-1.1-.62l-.64-1.05c-.38-.61-.19-1.4.43-1.79.61-.38,1.4-.19,1.78.43l.64,1.05c.38.61.19,1.4-.43,1.79-.21.13-.45.19-.68.19Z"/>
          <path class="cls-4" d="m83.56,23.9c-.36,0-.71-.15-.96-.43-2.87-3.17-7.59-3.83-11.22-1.6-.26.15-.51.33-.75.51-.23.17-.5.26-.78.26H28.97c-.71,0-1.29-.58-1.29-1.3v-5.06c0-.71.58-1.3,1.29-1.3h5.26c.71,0,1.29.58,1.29,1.3s-.58,1.3-1.29,1.3h-3.97v2.48h39.15c.19-.13.39-.26.59-.39,3.84-2.37,8.61-2.23,12.25.13v-2.21h-40.66c-.71,0-1.29-.58-1.29-1.3s.58-1.3,1.29-1.3h41.94c.71,0,1.29.58,1.29,1.3v6.31c0,.54-.33,1.01-.83,1.21-.15.06-.31.08-.46.08h.01Z"/>
          <path class="cls-4" d="m83.56,60.25c-.57,0-1.09-.38-1.25-.95-.69-2.52-2.16-4.68-4.24-6.21-.06-.05-.13-.1-.2-.13l-.2-.13c-.36-.24-.57-.64-.57-1.07v-12.33c0-.6.42-1.12,1-1.26.94-.23,1.82-.58,2.61-1.08.7-.43,1.34-.96,1.9-1.6.36-.39.93-.52,1.42-.33.5.19.83.68.83,1.21v22.62c0,.65-.48,1.2-1.13,1.29h-.18Zm-3.88-9.2c.99.74,1.84,1.58,2.59,2.51v-14.43c-.07.05-.14.08-.2.13-.75.46-1.54.83-2.39,1.12v10.67Z"/>
          <path class="cls-4" d="m50.35,95h-26.55c-.71,0-1.29-.58-1.29-1.3V21.37c0-.71.58-1.3,1.29-1.3h46.05c.56,0,1.05.36,1.22.88.18.52,0,1.11-.44,1.45-3.63,2.79-4.56,7.83-2.16,11.74,2.01,3.27,5.88,4.87,9.61,3.99.38-.1.8,0,1.1.25s.49.62.49,1.01v12.33c0,.48-.26.92-.69,1.14-.43.23-.94.2-1.33-.07-5.12-3.46-11.98-2.27-15.64,2.69-1.09,1.49-1.81,3.17-2.09,4.98-.12.7-.77,1.19-1.48,1.07-.7-.12-1.19-.79-1.07-1.49.36-2.19,1.25-4.31,2.57-6.11,4.01-5.46,11.2-7.19,17.16-4.44v-8.6c-4.31.4-8.5-1.65-10.82-5.42-2.52-4.1-2.21-9.15.5-12.83H25.09v69.74h25.26c.71,0,1.3.58,1.3,1.3s-.58,1.3-1.3,1.3h0Z"/>
          <path class="cls-4" d="m64.62,95h-6.15c-.71,0-1.29-.58-1.29-1.3s.58-1.3,1.29-1.3h5.72l12.88-9.5v-7.76c-4.6,2.1-10.05,1.6-14.19-1.46-2.11-1.56-3.74-3.68-4.7-6.11-.26-.67.06-1.42.73-1.69.66-.26,1.41.06,1.69.73.8,1.98,2.11,3.7,3.84,4.98,3.89,2.88,9.2,2.99,13.23.27.39-.27.91-.3,1.33-.07.43.23.69.67.69,1.14v10.62c0,.42-.2.8-.52,1.05l-13.75,10.14c-.23.17-.49.25-.77.25h-.01Z"/>
          <path class="cls-4" d="m83.56,79.86h-5.18c-.71,0-1.29-.58-1.29-1.3s.58-1.3,1.29-1.3h3.88v-11.5c0-.71.58-1.3,1.3-1.3s1.29.58,1.29,1.3v12.8c0,.71-.58,1.3-1.29,1.3Z"/>
        </g>
      </g>
      <rect class="cls-3" width="110" height="110"/>
    </g>
  </g>
</svg>