<?xml version="1.0" encoding="UTF-8"?>
<svg id="_圖層_2" data-name="圖層 2" xmlns="http://www.w3.org/2000/svg" xmlns:xlink="http://www.w3.org/1999/xlink" viewBox="0 0 110 110">
  <defs>
    <style>
      .cls-1 {
        opacity: .7;
      }

      .cls-2 {
        clip-path: url(#clippath);
      }

      .cls-3 {
        fill: none;
      }

      .cls-4 {
        fill: #0e1c26;
      }
    </style>
    <clipPath id="clippath">
      <rect class="cls-3" x="6.5" y="19.13" width="97" height="73"/>
    </clipPath>
  </defs>
  <g id="_圖層_1-2" data-name="圖層 1">
    <g>
      <g class="cls-2">
        <g class="cls-1">
          <path class="cls-4" d="m98.42,32.81H7.73c-.69,0-1.23-.56-1.23-1.24s.56-1.24,1.23-1.24h90.67c.69,0,1.23.56,1.23,1.24s-.56,1.24-1.23,1.24h.01Z"/>
          <path class="cls-4" d="m83.2,27.21h-41.77c-.69,0-1.23-.56-1.23-1.24s.56-1.24,1.23-1.24h41.76c.69,0,1.23.56,1.23,1.24s-.56,1.24-1.23,1.24h.01Z"/>
          <path class="cls-4" d="m16.45,28.17c1.21,0,2.19-.98,2.19-2.2s-.98-2.2-2.19-2.2-2.19.98-2.19,2.2.98,2.2,2.19,2.2Z"/>
          <path class="cls-4" d="m24.8,25.97c0-1.21-.98-2.2-2.19-2.2s-2.19.99-2.19,2.2.98,2.2,2.19,2.2,2.19-.99,2.19-2.2Z"/>
          <path class="cls-4" d="m28.75,28.17c1.21,0,2.19-.98,2.19-2.2s-.98-2.2-2.19-2.2-2.19.98-2.19,2.2.98,2.2,2.19,2.2Z"/>
          <path class="cls-4" d="m38.93,55.65c-.69,0-1.23-.56-1.23-1.24v-1.05c0-.69.56-1.24,1.23-1.24s1.23.56,1.23,1.24v1.05c0,.69-.56,1.24-1.23,1.24Z"/>
          <path class="cls-4" d="m38.93,65.97c-2.2,0-3.99-1.71-3.99-3.83,0-.69.56-1.24,1.23-1.24s1.23.56,1.23,1.24c0,.74.69,1.34,1.52,1.34s1.52-.61,1.52-1.34-.69-1.34-1.52-1.34c-2.2,0-3.99-1.71-3.99-3.83s1.79-3.83,3.99-3.83,3.99,1.71,3.99,3.83c0,.69-.56,1.24-1.23,1.24s-1.23-.56-1.23-1.24c0-.74-.69-1.34-1.52-1.34s-1.52.61-1.52,1.34.69,1.34,1.52,1.34c2.2,0,3.99,1.71,3.99,3.83s-1.79,3.83-3.99,3.83Z"/>
          <path class="cls-4" d="m38.93,67.16c-.69,0-1.23-.56-1.23-1.24v-1.19c0-.69.56-1.24,1.23-1.24s1.23.56,1.23,1.24v1.19c0,.69-.56,1.24-1.23,1.24Z"/>
          <path class="cls-4" d="m63.18,42.93c-.69,0-1.23-.56-1.23-1.24v-1.05c0-.69.56-1.24,1.23-1.24s1.23.56,1.23,1.24v1.05c0,.69-.56,1.24-1.23,1.24Z"/>
          <path class="cls-4" d="m63.18,57.92c-6.09,0-11.04-4.97-11.04-11.07s4.95-11.07,11.04-11.07,11.04,4.97,11.04,11.07-4.95,11.07-11.04,11.07Zm0-19.66c-4.73,0-8.56,3.85-8.56,8.59s3.84,8.59,8.56,8.59,8.56-3.85,8.56-8.59-3.84-8.59-8.56-8.59Z"/>
          <path class="cls-4" d="m63.18,53.25c-2.2,0-3.99-1.71-3.99-3.83,0-.69.56-1.24,1.23-1.24s1.23.56,1.23,1.24c0,.74.69,1.34,1.52,1.34s1.52-.61,1.52-1.34-.69-1.34-1.52-1.34c-2.2,0-3.99-1.71-3.99-3.83s1.79-3.83,3.99-3.83,3.99,1.71,3.99,3.83c0,.69-.56,1.24-1.23,1.24s-1.23-.56-1.23-1.24c0-.74-.69-1.34-1.52-1.34s-1.52.61-1.52,1.34.69,1.34,1.52,1.34c2.2,0,3.99,1.71,3.99,3.83s-1.79,3.83-3.99,3.83Z"/>
          <path class="cls-4" d="m63.18,54.43c-.69,0-1.23-.56-1.23-1.24v-1.19c0-.69.56-1.24,1.23-1.24s1.23.56,1.23,1.24v1.19c0,.69-.56,1.24-1.23,1.24Z"/>
          <path class="cls-4" d="m86.49,68c-.69,0-1.23-.56-1.23-1.24v-1.68c0-.69.56-1.24,1.23-1.24s1.23.56,1.23,1.24v1.68c0,.69-.56,1.24-1.23,1.24Z"/>
          <path class="cls-4" d="m86.49,84.61c-3.13,0-5.67-2.42-5.67-5.39,0-.69.56-1.24,1.23-1.24s1.23.56,1.23,1.24c0,1.6,1.43,2.91,3.2,2.91s3.2-1.31,3.2-2.91-1.43-2.91-3.2-2.91c-3.13,0-5.67-2.42-5.67-5.39s2.55-5.39,5.67-5.39,5.67,2.42,5.67,5.39c0,.69-.56,1.24-1.23,1.24s-1.23-.56-1.23-1.24c0-1.6-1.43-2.91-3.2-2.91s-3.2,1.31-3.2,2.91,1.43,2.91,3.2,2.91c3.13,0,5.67,2.42,5.67,5.39s-2.55,5.39-5.67,5.39Z"/>
          <path class="cls-4" d="m86.49,86.52c-.69,0-1.23-.56-1.23-1.24v-1.9c0-.69.56-1.24,1.23-1.24s1.23.56,1.23,1.24v1.9c0,.69-.56,1.24-1.23,1.24Z"/>
          <path class="cls-4" d="m74.28,86.32H11.53c-2.77,0-5.03-2.26-5.03-5.05V24.18c0-2.79,2.25-5.05,5.03-5.05h83.1c2.77,0,5.03,2.26,5.03,5.05v40.55c0,.52-.32.99-.81,1.16-.47.18-1.03.04-1.36-.36-2.77-3.21-6.77-5.06-10.99-5.06-8.02,0-14.54,6.55-14.54,14.59,0,3.36,1.17,6.64,3.29,9.23.31.37.37.88.17,1.32-.2.44-.64.71-1.11.71h-.02ZM11.53,21.61c-1.41,0-2.56,1.15-2.56,2.57v57.1c0,1.41,1.15,2.57,2.56,2.57h60.38c-1.57-2.64-2.43-5.68-2.43-8.78,0-9.41,7.63-17.06,17.01-17.06,3.92,0,7.69,1.35,10.7,3.8V24.18c0-1.41-1.15-2.57-2.56-2.57H11.53Z"/>
          <path class="cls-4" d="m86.49,92.13c-9.38,0-17.01-7.65-17.01-17.06s7.63-17.06,17.01-17.06,17.01,7.65,17.01,17.06-7.63,17.06-17.01,17.06Zm0-31.65c-8.02,0-14.54,6.55-14.54,14.59s6.53,14.59,14.54,14.59,14.54-6.55,14.54-14.59-6.53-14.59-14.54-14.59Z"/>
          <path class="cls-4" d="m61.32,75.73H25.9c-3.71,0-6.73-3.03-6.73-6.75s3.02-6.75,6.73-6.75h4.04c.5,0,.93.3,1.14.75,1.36,3.14,4.44,5.17,7.85,5.17s6.49-2.03,7.85-5.17c.2-.45.64-.75,1.14-.75h13.42c3.71,0,6.73,3.03,6.73,6.75s-3.02,6.75-6.73,6.75h-.01Zm-35.42-11.01c-2.35,0-4.25,1.91-4.25,4.27s1.91,4.27,4.25,4.27h35.42c2.35,0,4.25-1.91,4.25-4.27s-1.91-4.27-4.25-4.27h-12.64c-1.9,3.61-5.65,5.92-9.76,5.92s-7.86-2.29-9.76-5.92h-3.27Z"/>
          <path class="cls-4" d="m38.93,70.64c-6.09,0-11.04-4.97-11.04-11.07s4.95-11.07,11.04-11.07,11.04,4.97,11.04,11.07-4.95,11.07-11.04,11.07Zm0-19.66c-4.73,0-8.56,3.85-8.56,8.59s3.84,8.59,8.56,8.59,8.56-3.85,8.56-8.59-3.84-8.59-8.56-8.59Z"/>
        </g>
      </g>
      <rect class="cls-3" width="110" height="110"/>
    </g>
  </g>
</svg>