<?xml version="1.0" encoding="UTF-8"?>
<svg id="_圖層_2" data-name="圖層 2" xmlns="http://www.w3.org/2000/svg" xmlns:xlink="http://www.w3.org/1999/xlink" viewBox="0 0 110 110">
  <defs>
    <style>
      .cls-1 {
        opacity: .7;
      }

      .cls-2 {
        clip-path: url(#clippath);
      }

      .cls-3 {
        fill: none;
      }

      .cls-4 {
        fill: #0e1c26;
      }
    </style>
    <clipPath id="clippath">
      <rect class="cls-3" x="7.5" y="18" width="95" height="74"/>
    </clipPath>
  </defs>
  <g id="_圖層_1-2" data-name="圖層 1">
    <g>
      <g class="cls-2">
        <g class="cls-1">
          <path class="cls-4" d="m54.16,50.11c-.77,0-1.42-.59-1.46-1.38-.05-.81.57-1.49,1.38-1.54,5.64-.33,6.49-6.2,6.52-6.45.1-.72.72-1.27,1.45-1.27h15.03c.81,0,1.47.65,1.47,1.46s-.66,1.46-1.47,1.46h-13.84c-.83,3.06-3.4,7.39-9,7.72h-.08Z"/>
          <path class="cls-4" d="m93.26,65.55h-4.55c-.81,0-1.46-.65-1.46-1.46s.65-1.46,1.46-1.46h4.55c1.27,0,2.38-.84,2.57-1.94.13-.72-.06-1.43-.52-1.99-.46-.55-1.13-.85-1.84-.85-.81,0-1.46-.65-1.46-1.46s.66-1.46,1.46-1.46h3.49c1.27,0,2.38-.84,2.57-1.94.13-.74-.06-1.43-.52-1.99-.46-.55-1.13-.85-1.84-.85h-3.69c-.81,0-1.46-.65-1.46-1.46s.66-1.46,1.46-1.46c.71,0,1.38-.31,1.84-.85.47-.56.66-1.26.52-1.99-.2-1.11-1.3-1.94-2.57-1.94h-6.65c-.81,0-1.46-.65-1.46-1.46s.65-1.46,1.46-1.46h6.65c2.71,0,5.02,1.84,5.46,4.36.21,1.2.01,2.41-.54,3.45,1.19.24,2.27.87,3.07,1.8,1.02,1.21,1.44,2.8,1.17,4.38-.38,2.15-2.08,3.78-4.25,4.25.57,1.04.77,2.27.56,3.47-.45,2.53-2.75,4.36-5.46,4.36v-.04Z"/>
          <path class="cls-4" d="m85.15,73.27h-27.99c-.14,0-.3-.02-.44-.07l-5.11-1.58c-3.57-1.1-7.29-1.67-11.04-1.67h-18.18c-.81,0-1.46-.65-1.46-1.46v-27.57c0-.81.65-1.46,1.46-1.46h23.47l6.87-6.37c2.48-2.3,5.7-3.56,9.08-3.56h15.01c3.46,0,6.4,2.57,6.69,5.86.16,1.8-.45,3.59-1.67,4.91-1.21,1.33-2.95,2.09-4.76,2.09-.81,0-1.46-.65-1.46-1.46s.66-1.46,1.46-1.46c.99,0,1.93-.42,2.59-1.14.68-.74,1-1.68.91-2.68-.16-1.79-1.81-3.18-3.76-3.18h-15.01c-2.63,0-5.16.98-7.08,2.78l-7.29,6.76c-.27.25-.63.39-1,.39h-22.58v24.65h16.71c4.03,0,8.05.6,11.9,1.8l4.89,1.51h27.76c1.27,0,2.38-.84,2.57-1.94.15-.84-.12-1.66-.75-2.23-.6-.55-.64-1.47-.1-2.06.55-.59,1.48-.64,2.07-.09,1.37,1.23,1.99,3.07,1.67,4.9-.45,2.53-2.75,4.36-5.46,4.36v-.02Z"/>
          <path class="cls-4" d="m33.67,24.63h-6.47c-.81,0-1.46-.65-1.46-1.46s.65-1.46,1.46-1.46h6.47c.81,0,1.46.65,1.46,1.46s-.65,1.46-1.46,1.46Z"/>
          <path class="cls-4" d="m33.41,87.71h-5.93c-1.83,0-3.32-1.48-3.32-3.31s1.49-3.31,3.32-3.31h5.93c1.83,0,3.32,1.48,3.32,3.31s-1.49,3.31-3.32,3.31Zm-5.93-3.69c-.22,0-.38.17-.38.38s.17.38.38.38h5.93c.21,0,.38-.17.38-.38s-.17-.38-.38-.38h-5.93Z"/>
          <path class="cls-4" d="m51.92,79.71H8.96c-.81,0-1.46-.65-1.46-1.46s.66-1.46,1.46-1.46h41.48v-5.49c-3.23-.88-6.54-1.33-9.87-1.33h-18.18c-.81,0-1.46-.65-1.46-1.46v-27.57c0-.81.65-1.46,1.46-1.46h23.47l4.57-4.25v-6.9H8.96c-.81,0-1.46-.65-1.46-1.46s.66-1.46,1.46-1.46h42.96c.81,0,1.46.65,1.46,1.46v9c0,.4-.17.79-.46,1.07l-5.46,5.08c-.27.25-.63.39-1,.39h-22.58v24.65h16.71c3.98,0,7.94.59,11.76,1.76.62.19,1.04.76,1.04,1.4v8.05c0,.81-.66,1.46-1.46,1.46v-.02Z"/>
          <path class="cls-4" d="m46.96,92H13.93c-3.55,0-6.43-2.87-6.43-6.4v-33.04c0-.81.66-1.46,1.46-1.46s1.46.65,1.46,1.46v33.04c0,1.92,1.57,3.47,3.49,3.47h33.03c1.93,0,3.49-1.57,3.49-3.47v-14.3c-3.23-.88-6.53-1.33-9.87-1.33h-18.18c-.81,0-1.46-.65-1.46-1.46v-27.57c0-.81.65-1.46,1.46-1.46h23.47l4.57-4.25v-10.83c0-1.92-1.57-3.47-3.49-3.47H13.93c-1.93,0-3.49,1.57-3.49,3.47v6.59c0,.81-.66,1.46-1.46,1.46s-1.46-.65-1.46-1.46v-6.59c-.01-3.53,2.87-6.4,6.42-6.4h33.03c3.55,0,6.43,2.87,6.43,6.4v11.46c0,.4-.17.79-.46,1.07l-5.46,5.08c-.27.25-.63.39-1,.39h-22.58v24.65h16.71c3.98,0,7.94.59,11.76,1.76.62.19,1.04.76,1.04,1.4v15.39c0,3.53-2.88,6.4-6.43,6.4Z"/>
          <path class="cls-4" d="m8.96,34.8c-.81,0-1.46-.65-1.46-1.46v-2.34c0-.81.66-1.46,1.46-1.46s1.46.65,1.46,1.46v2.34c0,.81-.65,1.46-1.46,1.46Z"/>
          <path class="cls-4" d="m8.96,44.93c-.81,0-1.46-.65-1.46-1.46v-3.38c0-.81.66-1.46,1.46-1.46s1.46.65,1.46,1.46v3.38c0,.81-.65,1.46-1.46,1.46Z"/>
          <path class="cls-4" d="m8.96,54.02c-.81,0-1.46-.65-1.46-1.46v-2.34c0-.81.66-1.46,1.46-1.46s1.46.65,1.46,1.46v2.34c0,.81-.65,1.46-1.46,1.46Z"/>
          <path class="cls-4" d="m22.41,73.62c-.81,0-1.46-.65-1.46-1.46v-34.88c0-.81.65-1.46,1.46-1.46s1.46.65,1.46,1.46v34.88c0,.81-.66,1.46-1.46,1.46Z"/>
          <path class="cls-4" d="m73.85,45.74c-.81,0-1.46-.65-1.46-1.46v-1.92c0-.81.65-1.46,1.46-1.46s1.46.65,1.46,1.46v1.92c0,.81-.65,1.46-1.46,1.46Z"/>
          <path class="cls-4" d="m73.85,73.27c-10.81,0-19.59-8.76-19.59-19.52,0-2.06.32-4.1.96-6.05.25-.77,1.08-1.19,1.85-.94.77.25,1.19,1.08.94,1.84-.54,1.66-.81,3.39-.81,5.15,0,9.16,7.48,16.6,16.67,16.6s16.66-7.45,16.66-16.6c0-6.38-3.57-12.1-9.33-14.91-.73-.36-1.02-1.23-.67-1.96.36-.72,1.24-1.02,1.96-.66,6.77,3.31,10.97,10.03,10.97,17.54,0,10.77-8.8,19.52-19.59,19.52h-.02Z"/>
          <path class="cls-4" d="m73.85,64.7c-3.62,0-6.57-2.79-6.57-6.2,0-.81.65-1.46,1.46-1.46s1.46.65,1.46,1.46c0,1.8,1.63,3.27,3.63,3.27s3.63-1.47,3.63-3.27-1.63-3.27-3.63-3.27c-3.62,0-6.57-2.79-6.57-6.2s2.95-6.2,6.57-6.2,6.57,2.79,6.57,6.2c0,.81-.66,1.46-1.47,1.46s-1.46-.65-1.46-1.46c0-1.8-1.63-3.27-3.63-3.27s-3.63,1.47-3.63,3.27,1.63,3.27,3.63,3.27c3.62,0,6.57,2.79,6.57,6.2s-2.95,6.2-6.57,6.2Z"/>
          <path class="cls-4" d="m73.85,66.87c-.81,0-1.46-.65-1.46-1.46v-2.17c0-.81.65-1.46,1.46-1.46s1.46.65,1.46,1.46v2.17c0,.81-.65,1.46-1.46,1.46Z"/>
          <path class="cls-4" d="m93.47,50.11h-2.18c-.81,0-1.46-.65-1.46-1.46s.66-1.46,1.46-1.46h2.18c.81,0,1.46.65,1.46,1.46s-.65,1.46-1.46,1.46Z"/>
        </g>
      </g>
      <rect class="cls-3" width="110" height="110"/>
    </g>
  </g>
</svg>