<?xml version="1.0" encoding="UTF-8"?>
<svg id="_圖層_2" data-name="圖層 2" xmlns="http://www.w3.org/2000/svg" xmlns:xlink="http://www.w3.org/1999/xlink" viewBox="0 0 110 110">
  <defs>
    <style>
      .cls-1 {
        opacity: .7;
      }

      .cls-2 {
        clip-path: url(#clippath);
      }

      .cls-3 {
        fill: none;
      }

      .cls-4 {
        fill: #0e1c26;
      }
    </style>
    <clipPath id="clippath">
      <rect class="cls-3" x="14" y="16" width="82" height="78"/>
    </clipPath>
  </defs>
  <g id="_圖層_1-2" data-name="圖層 1">
    <g>
      <g class="cls-2">
        <g class="cls-1">
          <path class="cls-4" d="m31.46,69.05c-1.74,0-3.16-1.27-3.16-2.86,0-.75-.62-1.37-1.37-1.37s-1.37.62-1.37,1.37c0,2.6,1.89,4.83,4.53,5.43v.73c0,.75.62,1.37,1.37,1.37s1.37-.62,1.37-1.37v-.73c2.63-.6,4.53-2.85,4.53-5.43,0-3.08-2.64-5.6-5.89-5.6-1.74,0-3.16-1.27-3.16-2.86s1.42-2.86,3.16-2.86,3.15,1.27,3.15,2.86c0,.75.62,1.37,1.37,1.37s1.37-.62,1.37-1.37c0-2.58-1.89-4.83-4.53-5.43v-.5c0-.75-.62-1.37-1.37-1.37s-1.37.62-1.37,1.37v.5c-2.63.6-4.53,2.85-4.53,5.43,0,3.08,2.64,5.6,5.89,5.6,1.74,0,3.15,1.27,3.15,2.86s-1.42,2.86-3.15,2.86Z"/>
          <path class="cls-4" d="m51.14,70.03c.67,1.68,1.98,2.98,3.72,3.66.42.17.85.29,1.29.37.09.01.19.02.29.02.05,0,.11,0,.16.01l.14.02c.23.02.45.06.71.06s.55-.04.82-.07h.13s.11-.02.17-.04c.09,0,.19-.01.3-.04.45-.08.91-.23,1.33-.39.27-.11.56-.19.85-.25.05,0,.09,0,.14-.01.05,0,.09,0,.21-.02.17-.02.33-.05.5-.05.14.01.32.02.55.05h.14s.1,0,.13.01c.27.05.55.13.8.23,1.01.39,1.77,1.14,2.15,2.11.38.96.33,2.04-.13,3.01-.48,1.01-1.35,1.81-2.44,2.24-.27.11-.56.19-.85.25-.05,0-.09,0-.14.01-.05,0-.09,0-.14.01h-.08c-.17.04-.32.06-.49.06-.23,0-.47-.02-.73-.06-.05,0-.08-.01-.13-.02h-.07c-.18-.05-.34-.11-.56-.18-.05-.02-.11-.04-.16-.06-.23-.1-.42-.19-.63-.31-.18-.11-.36-.25-.55-.43-.04-.04-.07-.07-.14-.14-.12-.12-.24-.25-.37-.44-.04-.04-.06-.08-.08-.12-.14-.23-.25-.43-.33-.63-.06-.14-.14-.29-.26-.42-.02-.04-.06-.06-.11-.1-.1-.08-.18-.14-.29-.2-.03-.02-.08-.04-.12-.06-.12-.05-.25-.07-.38-.08h-.11c-.17-.01-.34.02-.5.08-.7.27-1.05,1.07-.77,1.77,1,2.51,3.48,4.13,6.31,4.13.43,0,.88-.05,1.39-.15l.45,1.13c.21.52.71.87,1.27.87.18,0,.34-.04.5-.1.35-.13.61-.39.75-.73.14-.33.15-.7.01-1.05l-.44-1.13c1.18-.74,2.11-1.76,2.68-2.98.8-1.68.87-3.52.2-5.2s-1.98-2.98-3.7-3.64c-.41-.17-.85-.29-1.29-.37-.09-.01-.19-.02-.29-.02-.05,0-.11,0-.15-.01l-.15-.02c-.23-.02-.45-.06-.69-.06-.3,0-.57.04-.84.07h-.11s-.11.02-.17.02c-.1,0-.19.01-.29.04-.45.1-.91.23-1.33.39-.27.11-.56.19-.85.25-.05,0-.1.01-.14.01s-.1,0-.14.01h-.08c-.17.04-.32.06-.49.06-.16,0-.32-.02-.54-.05h-.14s-.1,0-.14-.01c-.27-.05-.55-.13-.8-.23-1.01-.39-1.77-1.14-2.15-2.11-.8-2.02.34-4.38,2.57-5.26.27-.11.56-.19.86-.25.05,0,.1,0,.14-.01.05,0,.1,0,.14-.01h.1c.15-.04.31-.05.46-.06.23,0,.46.02.73.06l.2.05c.18.04.34.08.56.15.05.02.11.04.15.06.23.1.42.19.63.32.18.11.36.25.55.43l.14.14c.12.12.24.25.36.43.04.05.06.08.09.13.14.23.25.43.33.63.06.14.14.29.26.42.02.02.05.05.11.1.09.08.18.14.29.19.05.02.08.05.13.06.12.05.25.07.4.08h.07c.17,0,.34-.02.5-.08.34-.13.61-.39.75-.73.14-.33.15-.7.01-1.05-.11-.26-.23-.52-.41-.82l-.12-.19c-.18-.29-.34-.52-.52-.74-.17-.2-.36-.39-.61-.62-.05-.05-.11-.1-.17-.14-.25-.21-.48-.38-.73-.54-.21-.14-.46-.27-.75-.4l-.2-.1c-.31-.13-.57-.23-.86-.31-.25-.07-.52-.13-.83-.18l-.21-.04c-.33-.05-.61-.06-.9-.06h-.02c-.45,0-.9.05-1.35.13h-.02l-.33-.85c-.06-.14-.14-.29-.26-.42-.02-.04-.06-.06-.11-.1-.08-.08-.18-.14-.3-.2-.03-.02-.08-.04-.12-.06-.13-.05-.26-.07-.39-.08h-.08c-.18,0-.35.02-.5.08-.35.13-.61.39-.75.73-.14.33-.16.7-.01,1.05l.33.85c-2.86,1.8-4.07,5.19-2.88,8.19l-.05.02Z"/>
          <path class="cls-4" d="m92.49,34.59c.4,1.02.67,2.08.77,3.17.02.18.07.35.16.5.02.06.06.1.11.14.06.08.12.18.21.26.05.05.1.07.17.11.07.05.17.11.27.14.06.02.11.02.17.04h.08c.07.04.2.05.33.04.37-.04.69-.21.93-.5.24-.29.35-.64.31-1-.54-5.44-4.19-10.17-9.32-12.06-.42-.15-.85-.29-1.32-.4-.1-.02-.19-.05-.29-.07l-.14-.04c-.3-.07-.6-.13-.89-.18-.13-.02-.26-.04-.4-.06h-.12c-.27-.05-.55-.08-.82-.1-.18,0-.36-.02-.54-.02h-.16c-.18-.02-.36-.01-.52,0h-.26c-.11.01-.2.01-.31.02-.35.02-.69.06-1.04.1l-.23.02c-.39.06-.81.14-1.23.24-.07.01-.13.04-.2.06l-.13.04c-.3.08-.6.17-.89.26-.13.05-.26.1-.39.14-.29.11-.56.21-.83.33l-.11.05c-.07.04-.16.06-.23.1-.4.19-.76.38-1.11.57l-.11.07c-.32.19-.64.39-.94.62-.08.06-.16.12-.24.18l-.08.06c-.24.18-.46.36-.69.55-.02.02-.05.04-.07.06-.59-1.2-1.31-2.36-2.11-3.42-.12-.15-.26-.29-.46-.38-.06-.02-.11-.05-.18-.06-.08-.04-.23-.07-.33-.08l-.13-.02c-.07,0-.13.01-.25.04-.05,0-.08,0-.13.02-.18.05-.32.12-.45.21-.61.45-.73,1.31-.27,1.92.9,1.2,1.67,2.51,2.26,3.89-.02.04-.05.07-.07.1l-.07.1c-.19.26-.38.52-.56.81-.07.12-.16.25-.23.37-.16.26-.31.54-.45.81l-.06.11c-.05.08-.08.17-.13.25l-.04.07s-.05.08-.06.12c-.16.33-.3.68-.43,1.04-.18.48-.32.98-.46,1.52-.02.11-.05.2-.06.31l-.04.17c-.07.36-.14.71-.19,1.07-.02.18-.04.35-.06.57-.02.32-.05.64-.06.96v.63c0,.3.02.6.05.89v.1c.02.19.03.38.06.57.04.26.08.52.14.83l.04.19c.03.17.06.33.09.5.1.37.2.74.32,1.1.11.33.24.64.37.96l.04.1c.08.19.17.39.25.58.1.2.2.4.31.6l.05.1c.12.23.25.45.39.68.02.05.05.1.07.13,0,.01.02.04.02.05-1.02,1.91-2.36,3.6-3.95,5.04-.24-.07-.46-.12-.7-.18l-.34-.08c-.1-.02-.19-.05-.35-.08l-.1-.02c-.12-.02-.23-.05-.34-.06l-.19-.04c-.38-.07-.77-.14-1.16-.19l-.2-.04c-.08,0-.17-.01-.25-.02h-.17c-.38-.06-.76-.08-1.14-.11h-.34c-.16-.02-.3-.02-.45-.02h-.12c-.17-.01-.33,0-.5,0h-.23c-.21,0-.43.01-.64.02h-.19c-.13.01-.27.02-.41.04-.15.01-.3.04-.45.05l-.18.02c-.24.02-.48.06-.75.11l-.24.04c-.14.02-.3.04-.44.06-.08.01-.17.04-.25.05l-.17.04c-.29.06-.57.13-.86.2l-.38.1c.17-.23.29-.5.29-.8v-1.2c3.32-.62,5.69-3.33,5.69-6.55,0-3.69-3.17-6.68-7.06-6.68-2.38,0-4.32-1.77-4.32-3.94s1.94-3.94,4.32-3.94,4.32,1.77,4.32,3.94c0,.75.62,1.37,1.37,1.37s1.37-.62,1.37-1.37c0-3.22-2.38-5.93-5.69-6.55v-.92c0-.75-.62-1.37-1.37-1.37s-1.37.62-1.37,1.37v.92c-3.32.62-5.69,3.33-5.69,6.55,0,3.69,3.17,6.68,7.06,6.68,2.38,0,4.32,1.77,4.32,3.94s-1.94,3.94-4.32,3.94-4.32-1.77-4.32-3.94c0-.75-.62-1.37-1.37-1.37s-1.37.62-1.37,1.37c0,3.22,2.38,5.93,5.69,6.55v1.2c0,.6.39,1.1.93,1.27-.3.11-.61.19-.9.31-.44.18-.91.38-1.42.63-.1.05-.19.1-.29.14l-.12.06c-.35.18-.68.36-1.01.55-.14.08-.29.17-.42.25-.35.21-.68.43-1.01.65l-.12.08h-.01c-.2-.43-.44-.88-.72-1.35-.05-.07-.08-.14-.13-.21l-.07-.12c-.26-.43-.54-.85-.83-1.25-.1-.13-.19-.26-.3-.39-.29-.37-.59-.74-.93-1.1l-.12-.13c-.06-.07-.13-.14-.2-.21-.37-.38-.77-.76-1.19-1.13l-.07-.06s-.07-.06-.11-.1c-.49-.4-.99-.79-1.52-1.13-.06-.05-.13-.08-.19-.12l-.13-.07c-.45-.29-.87-.52-1.27-.74-.14-.07-.29-.14-.43-.21l-.17-.07c-.37-.18-.74-.33-1.11-.49-.23-.1-.45-.18-.69-.25-.37-.13-.75-.24-1.13-.35-.06-.01-.12-.04-.18-.06-.04-.01-.07-.02-.11-.04-1.02-2.37-1.55-4.87-1.55-7.43,0-10.41,8.47-18.87,18.87-18.87,3.18,0,6.31.81,9.07,2.32.13.07.29.12.46.14.04,0,.07,0,.1.01h.09c.12,0,.25,0,.42-.06.13-.04.25-.11.37-.19.04-.02.07-.05.1-.08.14-.12.24-.24.31-.37.37-.65.12-1.5-.54-1.86-3.17-1.74-6.76-2.67-10.39-2.67-11.85.06-21.55,9.75-21.55,21.67,0,2.33.39,4.68,1.18,6.94-.42-.02-.79-.05-1.14-.05-.75,0-1.37.62-1.37,1.37s.62,1.37,1.37,1.37c1.02,0,2.06.11,3.08.33.5.11,1.01.25,1.57.44.13.05.25.1.38.14l.12.05c.39.14.8.32,1.18.5l.14.07c.09.05.2.1.3.14,1.02.54,1.99,1.19,2.86,1.94.07.06.14.13.22.19l.08.07c.36.33.7.68,1.02,1.04l.21.23c.79.92,1.45,1.92,2,2.99l.11.21c.26.55.49,1.08.67,1.61l.29-.1-.25.19c.1.3.18.6.29.96.02.11.06.21.08.32.06.26.12.52.17.79.04.21.07.44.1.65v.11c.04.17.06.33.07.5.05.51.07.94.07,1.33,0,.52-.04,1.07-.11,1.74-.02.15-.05.3-.07.45l-.02.14c-.06.37-.13.73-.22,1.07-.06.24-.11.46-.18.7-.1.31-.2.62-.31.92l-.08.23c-.06.15-.11.32-.18.48-.18.43-.4.88-.64,1.33-.09.18-.21.36-.32.54l-.11.17c-.15.24-.3.49-.48.71-.14.21-.3.42-.46.62-.24.3-.48.58-.74.87l-.13.14c-.06.07-.12.14-.19.2-.43.43-.87.83-1.32,1.18l.19.24-.26-.18c-.46.37-.96.71-1.49,1.02-2.31,1.41-4.94,2.14-7.61,2.14-8.12,0-14.72-6.6-14.72-14.72,0-4.95,2.46-9.55,6.61-12.28.31-.2.51-.51.58-.87.07-.36,0-.73-.2-1.02-.11-.17-.26-.31-.45-.42-.05-.02-.1-.05-.18-.07-.14-.06-.27-.08-.37-.1l-.14-.02s-.09,0-.19.02c-.04,0-.07,0-.12.02-.18.04-.32.1-.45.19-4.91,3.25-7.83,8.69-7.83,14.56,0,9.62,7.83,17.46,17.45,17.46,2.54,0,5-.55,7.32-1.63.25.96.5,1.77.8,2.52.35.88.76,1.75,1.23,2.58.07.13.18.25.31.37.04.02.06.05.1.07.12.08.25.15.42.2.15.05.31.07.46.04.04,0,.07,0,.11-.01.18-.02.33-.07.47-.15.65-.37.89-1.2.52-1.87-.41-.73-.76-1.48-1.07-2.26-.37-.93-.67-1.91-.88-2.89.5-.35,1-.73,1.5-1.14.07-.06.13-.12.2-.18l.14-.13c.38-.33.7-.65,1.01-.98.2-.2.39-.42.58-.63.21-.25.42-.5.61-.75l.06-.07c.19-.24.38-.49.55-.74.1-.13.17-.26.25-.4l.12-.19c.37-.6.71-1.21,1.01-1.86l.1-.2c.08-.17.15-.33.23-.51.13-.31.24-.63.35-.95.11-.31.2-.62.3-.93.08-.29.16-.58.23-.88.1-.39.16-.79.23-1.19l.04-.2c.02-.17.06-.35.07-.51.08-.71.12-1.37.12-2,0-.46-.02-.95-.08-1.54-.01-.18-.04-.37-.06-.55-.04-.32-.08-.63-.14-.95-.07-.38-.14-.75-.24-1.12l-.04-.17c-.02-.11-.05-.21-.08-.31.08-.06.16-.12.29-.21.13-.1.27-.2.4-.3.24-.17.49-.33.74-.49l.15-.1c.11-.06.2-.13.31-.19.27-.15.56-.31.83-.45l.15-.08c.08-.05.17-.1.26-.13.45-.23.88-.4,1.29-.57.51-.2,1.05-.38,1.64-.56.11-.04.2-.06.31-.08l.23-.06c.37-.1.74-.19,1.11-.26.14-.02.3-.05.44-.07l.23-.04c.33-.06.68-.11,1.02-.14.18-.02.35-.02.52-.04h.2c.33-.04.65-.06.99-.06.3,0,.58,0,.88.01h.14c.17,0,.33.01.54.02.31.02.62.06.93.1h.14c.09.02.19.04.29.05.12.01.25.04.37.06.29.05.57.11.86.17l.14.02c.07.01.14.02.21.05.13.04.27.07.4.11l.27.07c.32.08.63.17.94.27.64.21,1.16.4,1.63.61,2.5,1.08,4.72,2.68,6.55,4.73l.05.06c.73.81,1.38,1.69,1.96,2.62.04.06.07.12.1.18l.07.12c.21.37.44.74.63,1.12.29.57.51,1.07.7,1.56.24.61.45,1.25.64,1.96.05.15.07.31.11.46l.06.27c.1.4.19.82.25,1.23.05.27.07.55.11.81v.11c.05.35.08.7.11,1.05.02.33.02.67.02,1s0,.65-.02.99c-.01.33-.04.67-.07,1-.04.36-.1.71-.16,1.06l-.03.25c-.04.2-.06.4-.11.61-.29,1.35-.71,2.66-1.27,3.87l-.08.18c-.27.6-.58,1.18-.92,1.73-2.15,3.62-5.35,6.35-9.23,7.9-.45.18-.94.35-1.54.52-.13.04-.26.07-.39.12-.52.14-1,.26-1.45.35l.06.29-.16-.27c-.46.08-.98.15-1.56.23l-.4.04c-.51.04-.97.06-1.41.07h-.18c-.43,0-.89-.01-1.36-.05l-.37-.04c-.33-.04-.67-.07-.99-.12-.16-.02-.31-.05-.46-.07-.31-.06-.62-.12-.94-.19l-.09-.02c-.11-.02-.21-.05-.32-.07-.39-.1-.79-.21-1.17-.33l-.14-.05c-.42-.14-.83-.3-1.29-.49-.08-.04-.17-.07-.24-.11l-.13-.06c-.3-.13-.61-.27-.9-.43-.14-.07-.29-.14-.42-.23-.29-.15-.57-.32-.86-.49l-.13-.08c-.08-.05-.15-.1-.24-.14-.44-.29-.82-.55-1.17-.8-.13-.1-.27-.17-.45-.21-.05,0-.08-.01-.19-.04-.05,0-.11-.02-.18-.02h-.08c-.12.02-.24.05-.42.12-.03,0-.08.02-.14.06-.19.1-.35.23-.46.38-.45.61-.32,1.46.27,1.92,3.79,2.82,8.25,4.32,12.91,4.32,2.73,0,5.42-.51,7.99-1.54,4.07-1.62,7.51-4.39,9.97-8.05,2.5.56,5.02.44,7.37-.3,2.2-.69,4.23-1.92,5.87-3.56.32-.32.64-.67.93-1.01.58-.7,1.11-1.48,1.55-2.29.23-.4.43-.83.61-1.25.75-1.76,1.13-3.64,1.13-5.57,0-1.27-.17-2.54-.5-3.76-.05-.15-.12-.31-.23-.45-.02-.04-.06-.07-.11-.11-.08-.1-.17-.17-.25-.21-.05-.04-.11-.06-.16-.08-.09-.05-.19-.08-.3-.11-.06-.01-.12-.02-.17-.02h-.12c-.12-.01-.25,0-.36.04-.36.1-.64.32-.83.64-.19.32-.23.69-.13,1.04.26.99.4,2.01.4,3.05,0,6.39-5.2,11.59-11.59,11.59-.56,0-1.12-.04-1.68-.12.25-.52.48-1,.67-1.48.07-.18.14-.36.2-.54.23.18.51.27.81.27.75,0,1.37-.62,1.37-1.37v-.38c2.16-.58,3.64-2.43,3.64-4.58,0-2.51-2.08-4.6-4.7-4.76-.01-.12-.04-.24-.05-.37-.05-.31-.12-.61-.2-.92l-.13-.6c-.05-.21-.1-.43-.15-.64-.14-.5-.31-.99-.48-1.44.25-.08.48-.12.69-.12,1.25,0,2.27.92,2.27,2.04,0,.75.62,1.37,1.37,1.37s1.37-.62,1.37-1.37c0-2.14-1.49-4-3.64-4.58v-.2c0-.75-.62-1.37-1.37-1.37s-1.37.62-1.37,1.37v.2c-.14.04-.27.08-.4.13-.06-.12-.13-.24-.19-.36l-.23-.4c-.03-.06-.06-.12-.09-.18-.16-.27-.32-.54-.49-.8-.11-.18-.21-.35-.33-.51-.19-.29-.39-.57-.61-.86,1.19-.4,2.44-.62,3.72-.62,2.44,0,4.76.75,6.74,2.17.13.1.27.15.45.2.03,0,.08.01.18.04.08.01.3,0,.25,0,.13,0,.25-.04.43-.11.05-.01.09-.04.14-.06.19-.11.34-.24.46-.39.44-.62.3-1.48-.32-1.92-2.44-1.75-5.32-2.68-8.33-2.68-1.91,0-3.77.39-5.58,1.17-.06-.06-.12-.12-.18-.17l-.13-.13c-.33-.33-.68-.65-1.04-.95-.15-.13-.31-.26-.46-.39-.38-.31-.77-.61-1.17-.88l-.14-.1c-.07-.05-.14-.11-.22-.15-.51-.35-1.06-.68-1.59-.99-.07-.04-.14-.08-.23-.12l-.15-.08c-.44-.23-.87-.44-1.29-.63,1.11-1.14,2.09-2.43,2.94-3.81,1.51,1.56,3.3,2.73,5.32,3.47,1.59.58,3.26.88,4.95.88,5.04,0,9.75-2.68,12.31-7,.38-.65.17-1.49-.48-1.88-.13-.08-.27-.13-.45-.17-.04,0-.08-.01-.13-.02h-.11c-.11,0-.21,0-.35.04-.14.04-.27.1-.42.2l-.09.07c-.14.12-.25.23-.32.36-.2.35-.45.71-.79,1.13-.07.1-.14.18-.21.27-.33.4-.62.71-.91,1l-.1.08c-.26.25-.56.5-.93.77-.08.07-.18.13-.27.2-.41.3-.75.52-1.11.71-.35.19-.72.37-1.18.57-.1.05-.2.08-.31.12-.46.18-.86.31-1.25.42-.38.1-.79.18-1.29.25-.11.01-.21.02-.33.05-.5.06-.92.08-1.32.08-.13,0-.26,0-.39-.01h-.34c-.09-.02-.18-.02-.27-.02-.17-.01-.32-.04-.49-.06l-.31-.05c-.07,0-.14-.01-.2-.02-.29-.05-.57-.12-.86-.19l-.14-.04c-.33-.1-.67-.19-.99-.32-2.24-.82-4.14-2.3-5.5-4.26-.2-.29-.38-.57-.55-.87-.07-.13-.14-.27-.21-.42l-.05-.1c-.11-.21-.2-.42-.3-.63-.08-.19-.16-.37-.23-.56-.08-.23-.15-.45-.23-.68l-.05-.14c-.04-.13-.08-.25-.11-.38-.11-.43-.19-.81-.24-1.19,0-.06-.01-.13-.02-.19v-.17c-.05-.31-.07-.63-.08-.94v-.45c0-.29.01-.58.04-.87.01-.14.02-.3.05-.44.04-.31.1-.62.15-.92l.02-.13c.01-.08.04-.17.05-.25.11-.46.24-.88.38-1.27.12-.31.25-.63.45-1.05.08-.18.19-.36.29-.54l.07-.13c.04-.07.07-.14.12-.21.14-.25.31-.49.48-.73l.08-.13c.19-.25.38-.5.59-.75l.11-.13c.06-.07.13-.15.19-.23l.15-.15c.19-.19.38-.38.58-.56.08-.07.17-.14.25-.21.18-.15.37-.31.57-.45l.06-.05c.06-.05.13-.1.19-.14.25-.18.51-.35.77-.5l-.16-.26.23.21c.3-.17.6-.32.91-.46l.26-.12c.23-.1.45-.19.68-.27.11-.04.2-.07.32-.11.24-.08.48-.15.73-.21l.26-.07c.33-.08.65-.14,1-.19l.18-.02c.27-.04.56-.06.85-.08h.33c.23-.02.45-.02.69-.01.14,0,.29,0,.43.02.23.01.44.04.67.07h.08c.11.02.23.04.33.06.24.04.48.1.71.14l.14.04c.07.01.14.02.21.05.38.1.74.21,1.07.33,3.07,1.13,5.52,3.52,6.76,6.59h-.01Zm-11.23,37.62v-.33c1,.23,1.73,1.01,1.73,1.96,0,1.04-.88,1.89-2,2.01.04-.2.07-.42.09-.62.04-.25.06-.5.08-.75v-.12c.05-.44.1-.88.11-1.32v-.83h-.01Z"/>
          <path class="cls-4" d="m85.86,38.23c.15.06.31.07.51.08.04,0,.07,0,.12-.01.13-.01.24-.05.34-.08.05-.02.1-.05.14-.07.1-.05.19-.12.3-.21.02-.02.06-.05.08-.08.12-.13.2-.27.26-.43.45-1.21.36-2.54-.24-3.72-.37-.73-.92-1.36-1.61-1.83l.07-.19c.13-.35.11-.71-.05-1.05-.16-.33-.43-.58-.77-.71-.14-.05-.3-.08-.48-.08-.05,0-.1,0-.16.01-.13.01-.24.05-.36.08-.05.02-.09.05-.14.07-.09.05-.19.12-.3.21-.02.02-.05.05-.08.08-.12.13-.2.27-.26.43l-.07.19c-.16-.02-.3-.04-.5-.04s-.42.02-.64.06h-.11c-.07.01-.14.02-.22.04-.33.07-.64.17-.94.29-1.23.51-2.14,1.46-2.58,2.68-.44,1.2-.36,2.5.21,3.68.58,1.17,1.58,2.07,2.85,2.52.58.21,1.06.63,1.32,1.16.25.5.29,1.05.11,1.54-.06.15-.14.3-.27.46l-.08.11c-.13.15-.26.26-.43.37-.13.08-.3.15-.48.21-.05.01-.08.02-.13.04-.2.05-.39.08-.57.08-.08,0-.17,0-.27-.02h-.15c-.14-.04-.3-.07-.44-.13-.58-.21-1.06-.63-1.32-1.16-.25-.5-.28-1.05-.11-1.54.13-.35.11-.71-.05-1.05-.15-.33-.43-.58-.77-.71-.14-.05-.29-.08-.47-.08-.05,0-.09,0-.17.01-.13.01-.24.05-.35.08-.05.02-.1.05-.14.07-.1.05-.19.12-.3.21-.04.02-.06.06-.1.08-.12.14-.2.27-.26.43-.45,1.21-.36,2.54.24,3.72.37.73.92,1.36,1.61,1.85l-.13.36c-.26.71.11,1.5.81,1.76.15.06.31.08.48.08.57,0,1.1-.36,1.29-.89l.13-.36c.15.01.3.02.45.02,2.05,0,3.87-1.24,4.55-3.07.45-1.21.36-2.54-.24-3.72-.58-1.16-1.58-2.04-2.82-2.49-1.18-.43-1.82-1.64-1.44-2.69.18-.49.56-.88,1.08-1.1.13-.06.27-.1.49-.14h.11c.1-.02.19-.04.27-.04s.17,0,.3.02h.15c.14.04.3.08.44.13.58.21,1.06.63,1.32,1.16.25.5.29,1.05.11,1.54-.26.71.11,1.5.81,1.76h.04Z"/>
        </g>
      </g>
      <rect class="cls-3" width="110" height="110"/>
    </g>
  </g>
</svg>