<?xml version="1.0" encoding="UTF-8"?>
<svg id="_圖層_2" data-name="圖層 2" xmlns="http://www.w3.org/2000/svg" xmlns:xlink="http://www.w3.org/1999/xlink" viewBox="0 0 110 110">
  <defs>
    <style>
      .cls-1 {
        opacity: .7;
      }

      .cls-2 {
        clip-path: url(#clippath);
      }

      .cls-3 {
        fill: none;
      }

      .cls-4 {
        fill: #0e1c26;
      }
    </style>
    <clipPath id="clippath">
      <rect class="cls-3" x="13" y="14.5" width="84" height="81"/>
    </clipPath>
  </defs>
  <g id="_圖層_1-2" data-name="圖層 1">
    <g>
      <g class="cls-2">
        <g class="cls-1">
          <path class="cls-4" d="m55,35.3c-5.72,0-10.37-4.66-10.37-10.4s4.65-10.4,10.37-10.4,10.37,4.66,10.37,10.4-4.65,10.4-10.37,10.4Zm0-18.04c-4.21,0-7.62,3.43-7.62,7.65s3.41,7.65,7.62,7.65,7.62-3.43,7.62-7.65-3.41-7.65-7.62-7.65Z"/>
          <path class="cls-4" d="m23.38,90.24c-3.58,0-7.08-1.87-9-5.19-2.86-4.97-1.15-11.33,3.8-14.2,2.39-1.39,5.19-1.75,7.87-1.04,2.68.71,4.9,2.44,6.29,4.84,2.86,4.97,1.15,11.33-3.8,14.2-1.63.95-3.4,1.39-5.16,1.39Zm-.03-18.04c-1.32,0-2.62.35-3.79,1.03-3.63,2.1-4.89,6.79-2.78,10.44,2.1,3.65,6.77,4.91,10.41,2.79,3.63-2.1,4.89-6.79,2.79-10.44-1.02-1.77-2.67-3.04-4.62-3.56-.66-.18-1.32-.26-1.98-.26h-.03Z"/>
          <path class="cls-4" d="m86.61,90.24c-1.76,0-3.54-.45-5.17-1.39-4.95-2.87-6.65-9.24-3.79-14.2,1.39-2.4,3.62-4.13,6.29-4.84,2.68-.71,5.48-.35,7.87,1.04,2.39,1.39,4.12,3.63,4.83,6.31.71,2.69.35,5.49-1.04,7.89-1.91,3.34-5.41,5.19-8.99,5.19Zm-3.8-3.78c3.64,2.1,8.31.86,10.41-2.79,1.02-1.77,1.29-3.83.76-5.8-.53-1.97-1.78-3.62-3.54-4.65-1.76-1.03-3.82-1.29-5.79-.77-1.96.53-3.61,1.79-4.62,3.56-2.09,3.65-.85,8.33,2.8,10.44h-.02Z"/>
          <path class="cls-4" d="m55,54c-.76,0-1.37-.62-1.37-1.38v-1.8c0-.77.62-1.38,1.37-1.38s1.37.62,1.37,1.38v1.8c0,.77-.62,1.38-1.37,1.38Z"/>
          <path class="cls-4" d="m68.34,51.26c-.4,0-.77-.17-1.03-.47-1.08-1.23-2.32-2.3-3.72-3.17-.63-.4-.84-1.23-.45-1.87l1.98-3.34c1.11-1.88,1.44-4.17.87-6.28l-1.54-2.88h-3.77c-.58,0-1.1-.36-1.29-.91-.2-.55-.03-1.16.42-1.53,1.79-1.45,2.81-3.62,2.81-5.92,0-.4-.04-.83-.11-1.31-.07-.4.04-.8.29-1.12.26-.31.65-.49,1.05-.49h2.37c3.91,0,7.42,2.62,8.53,6.37l1.88,6.31c1.06,3.58.24,7.41-2.19,10.24l-5.05,5.88c-.26.3-.63.48-1.03.48h-.02Zm-2.17-5.23c.75.55,1.46,1.14,2.12,1.79l4.05-4.72c1.82-2.12,2.44-4.98,1.63-7.66l-1.87-6.31c-.78-2.6-3.2-4.4-5.89-4.4h-.86v.16c0,2.03-.58,3.96-1.63,5.61h1.54c.51,0,.97.27,1.21.73l2,3.74c.06.09.09.18.12.27.82,2.88.41,6.01-1.11,8.58l-1.31,2.22Z"/>
          <path class="cls-4" d="m41.64,51.26c-.4,0-.77-.18-1.03-.48l-5.05-5.88c-2.43-2.83-3.25-6.66-2.19-10.24l1.88-6.31c1.11-3.75,4.62-6.37,8.53-6.37h2.37c.4,0,.79.18,1.05.49.25.31.37.73.29,1.12-.07.47-.11.9-.11,1.31,0,2.3,1.02,4.47,2.81,5.92.45.36.62.99.42,1.53-.19.55-.71.91-1.29.91h-3.77l-1.54,2.88c-.56,2.12-.24,4.39.87,6.28l1.98,3.34c.39.65.18,1.48-.45,1.87-1.4.87-2.64,1.93-3.72,3.17-.26.3-.63.47-1.03.47h-.02Zm2.14-26.53c-2.71,0-5.13,1.82-5.89,4.4l-1.88,6.31c-.79,2.67-.18,5.54,1.63,7.66l4.05,4.72c.66-.65,1.38-1.25,2.13-1.79l-1.31-2.22c-1.53-2.57-1.93-5.7-1.11-8.58.02-.09.06-.19.11-.27l2.01-3.74c.23-.44.7-.73,1.2-.73h1.54c-1.06-1.65-1.63-3.6-1.63-5.61v-.16h-.85Z"/>
          <path class="cls-4" d="m92.38,74.3c-.32,0-.63-.12-.88-.32-.36-.31-.71-.56-1.06-.75-2-1.16-4.36-1.34-6.51-.52-.55.21-1.15.05-1.53-.4-.38-.44-.43-1.08-.14-1.58l1.89-3.27-1.71-2.78c-1.52-1.52-3.6-2.38-5.75-2.38h-.1l-3.87.05c-.75-.04-1.37-.58-1.39-1.34-.05-1.65-.35-3.27-.88-4.8-.13-.38-.09-.79.12-1.14.19-.35.54-.58.93-.66l7.6-1.44c3.66-.7,7.38.51,9.94,3.23l4.5,4.78c2.68,2.84,3.2,7.2,1.25,10.59l-1.18,2.05c-.21.35-.54.6-.95.66-.07.01-.15.03-.24.03h-.04Zm-5.75-4.85c1.8,0,3.57.47,5.18,1.39.05.03.09.05.14.08l.43-.74c1.35-2.35,1-5.36-.85-7.32l-4.51-4.78c-1.91-2.03-4.7-2.93-7.43-2.41l-6.09,1.16c.22.9.38,1.82.47,2.74l2.58-.04c2.99,0,5.89,1.17,7.96,3.32.06.06.13.16.18.23l2.23,3.61c.27.43.27.97.02,1.41l-.77,1.34h.49-.03Z"/>
          <path class="cls-4" d="m75.8,95.5c-.67,0-1.36-.08-2.03-.23l-6.38-1.53c-3.63-.87-6.53-3.49-7.76-7.02l-2.55-7.31c-.13-.38-.09-.79.11-1.14.19-.35.54-.58.93-.66,1.62-.31,3.16-.86,4.59-1.64.66-.35,1.48-.12,1.85.55l1.89,3.38c1.07,1.91,2.88,3.32,4.99,3.89l3.26.1,1.89-3.27c.28-.51.87-.77,1.44-.66.57.1,1.01.56,1.11,1.13.37,2.28,1.72,4.24,3.71,5.4.35.21.74.39,1.19.55.38.14.69.44.82.82.14.38.1.8-.1,1.16l-1.18,2.05c-1.61,2.79-4.61,4.45-7.74,4.45h-.04Zm-15.62-15.56l2.04,5.87c.92,2.64,3.1,4.61,5.8,5.26l6.38,1.53c2.63.64,5.4-.57,6.76-2.92l.42-.74s-.09-.05-.14-.08c-1.74-1.01-3.12-2.48-4.02-4.22l-.78,1.34c-.26.44-.72.74-1.23.69l-4.23-.13c-.1,0-.2-.01-.3-.04-2.9-.73-5.4-2.65-6.85-5.26l-1.24-2.23c-.84.38-1.72.7-2.61.95h0Z"/>
          <path class="cls-4" d="m34.19,95.5c-3.13,0-6.14-1.66-7.74-4.45l-1.18-2.05c-.21-.35-.25-.78-.1-1.16.14-.38.44-.69.81-.82.45-.17.83-.35,1.19-.55,2-1.16,3.34-3.12,3.72-5.4.09-.57.54-1.03,1.11-1.13.57-.1,1.15.16,1.44.66l1.89,3.27,3.26-.1c2.11-.57,3.92-1.99,4.98-3.89l1.88-3.38c.36-.65,1.19-.9,1.85-.55,1.44.77,2.98,1.32,4.59,1.64.39.08.74.32.94.66.19.35.23.77.1,1.14l-2.55,7.31c-1.23,3.53-4.13,6.15-7.75,7.02l-6.38,1.53c-.68.16-1.36.23-2.04.23h-.02Zm-5.79-6.57l.43.74c1.35,2.35,4.13,3.54,6.76,2.92l6.38-1.53c2.71-.65,4.88-2.61,5.79-5.26l2.05-5.87c-.89-.25-1.77-.57-2.61-.95l-1.25,2.23c-1.46,2.61-3.96,4.53-6.84,5.26-.09.03-.2.04-.3.04l-4.23.13c-.52.04-.99-.25-1.23-.69l-.78-1.34c-.89,1.75-2.28,3.22-4.03,4.22-.05.03-.09.05-.14.08h0Z"/>
          <path class="cls-4" d="m17.61,74.3c-.08,0-.16,0-.25-.03-.4-.06-.75-.31-.94-.66l-1.18-2.05c-1.96-3.39-1.44-7.75,1.24-10.59l4.51-4.78c2.56-2.71,6.27-3.92,9.94-3.23l7.59,1.44c.39.08.74.31.94.66.19.35.24.77.11,1.14-.53,1.54-.83,3.15-.88,4.8-.02.74-.63,1.34-1.37,1.34,0,0-3.88-.05-3.88-.05.01,0-.07,0-.11,0-2.15,0-4.23.87-5.74,2.38l-1.71,2.78,1.89,3.27c.28.51.23,1.14-.14,1.58-.38.44-.99.6-1.53.4-2.15-.82-4.53-.62-6.51.52-.35.21-.7.45-1.06.75-.25.21-.56.32-.88.32h-.04Zm11.28-18.78c-2.21,0-4.34.91-5.9,2.56l-4.5,4.78c-1.85,1.96-2.22,4.97-.86,7.32l.43.74s.09-.05.14-.08c1.75-1.01,3.69-1.48,5.66-1.39l-.78-1.34c-.26-.44-.24-.99.03-1.41l2.22-3.61c.06-.09.12-.17.19-.23,2.08-2.15,4.95-3.32,7.96-3.32l2.56.04c.09-.93.26-1.84.48-2.74l-6.1-1.16c-.5-.09-1.02-.14-1.53-.14h0Z"/>
          <path class="cls-4" d="m55,71.81c-3.38,0-6.13-2.61-6.13-5.83,0-.77.62-1.38,1.37-1.38s1.37.62,1.37,1.38c0,1.69,1.51,3.08,3.38,3.08s3.38-1.38,3.38-3.08-1.52-3.08-3.38-3.08c-3.38,0-6.14-2.61-6.14-5.83s2.75-5.83,6.14-5.83,6.13,2.61,6.13,5.83c0,.77-.62,1.38-1.37,1.38s-1.37-.62-1.37-1.38c0-1.69-1.52-3.08-3.38-3.08s-3.38,1.38-3.38,3.08,1.52,3.08,3.38,3.08c3.38,0,6.14,2.61,6.14,5.83s-2.75,5.83-6.14,5.83Z"/>
          <path class="cls-4" d="m55,73.85c-.76,0-1.37-.61-1.37-1.38v-2.04c0-.77.62-1.38,1.37-1.38s1.37.62,1.37,1.38v2.04c0,.77-.62,1.38-1.37,1.38Z"/>
          <path class="cls-4" d="m55,80.66c-10.52,0-19.08-8.58-19.08-19.13s8.56-19.13,19.08-19.13,19.08,8.58,19.08,19.13-8.56,19.13-19.08,19.13Zm0-35.52c-9.01,0-16.33,7.35-16.33,16.38s7.32,16.38,16.33,16.38,16.33-7.35,16.33-16.38-7.32-16.38-16.33-16.38Z"/>
        </g>
      </g>
      <rect class="cls-3" width="110" height="110"/>
    </g>
  </g>
</svg>