<?xml version="1.0" encoding="UTF-8"?>
<svg id="_圖層_2" data-name="圖層 2" xmlns="http://www.w3.org/2000/svg" xmlns:xlink="http://www.w3.org/1999/xlink" viewBox="0 0 76.88 70">
  <defs>
    <style>
      .cls-1 {
        fill: #ffd600;
      }

      .cls-2 {
        clip-path: url(#clippath);
      }

      .cls-3 {
        fill: none;
      }
    </style>
    <clipPath id="clippath">
      <rect class="cls-3" width="76.88" height="70"/>
    </clipPath>
  </defs>
  <g id="_圖層_1-2" data-name="圖層 1">
    <g class="cls-2">
      <g>
        <path class="cls-1" d="m75.61,25.43c.69,0,1.27-.58,1.27-1.27v-3.55c0-3.85-3.14-6.97-6.97-6.97h-.14v-5.77c0-4.34-3.53-7.87-7.87-7.87H20.66c-.69,0-1.27.58-1.27,1.27s.58,1.27,1.27,1.27h41.24c2.95,0,5.33,2.4,5.33,5.33v36.19c0,2.95-2.4,5.33-5.33,5.33H22.5c-.69,0-1.27.58-1.27,1.27s.58,1.27,1.27,1.27h1.96l-4.64,4.13-4.66,4.15,1.52-9.35c.07-.37-.05-.74-.28-1.02-.23-.28-.6-.44-.97-.44h-7.55c-2.95,0-5.33-2.4-5.33-5.33V7.87c0-2.95,2.4-5.33,5.33-5.33h3.88c.69,0,1.27-.58,1.27-1.27s-.58-1.27-1.27-1.27h-3.88C3.53,0,0,3.53,0,7.87v36.19c0,4.34,3.53,7.87,7.87,7.87h6.07l-1.85,11.4c-.09.53.16,1.06.65,1.32.18.11.39.16.6.16.3,0,.6-.12.83-.32l6.76-6.02c.74.25,1.5.44,2.26.44h29.01l12.14,10.8c.23.21.53.32.83.32.21,0,.42-.05.6-.16.46-.25.72-.79.65-1.32l-1.57-9.65h5.05c3.85,0,6.97-3.14,6.97-6.97v-20.63c0-.69-.58-1.27-1.27-1.27s-1.27.58-1.27,1.27v20.63c0,2.45-1.98,4.45-4.45,4.45h-6.53c-.37,0-.71.16-.97.44-.23.28-.35.65-.28,1.02l1.25,7.59-7.34-6.53h1.25c.69,0,1.27-.58,1.27-1.27s-.58-1.27-1.27-1.27H23.29l4.99-4.43h33.63c4.34,0,7.87-3.53,7.87-7.87v-27.88h.14c2.45,0,4.45,1.99,4.45,4.45v3.55c0,.69.58,1.27,1.27,1.27l-.02-.02Z"/>
        <path class="cls-1" d="m24.99,38.68h.05c2.56,0,4.59-1.04,6.02-3.09,1.41-2.03,2.15-4.89,2.17-8.52,0-3.62-.69-6.48-2.1-8.54-1.43-2.08-3.46-3.14-6.05-3.14h-.05c-2.61,0-4.64,1.06-6.05,3.14-1.38,2.05-2.12,4.92-2.12,8.47s.67,6.44,2.05,8.49c1.41,2.1,3.44,3.16,6.07,3.18Zm-3.51-17.86c.85-1.41,2.03-2.1,3.55-2.1s2.72.69,3.58,2.12c.88,1.45,1.32,3.55,1.29,6.21,0,2.7-.46,4.78-1.34,6.23-.85,1.41-2.03,2.1-3.58,2.1s-2.72-.69-3.58-2.12c-.88-1.45-1.32-3.55-1.29-6.26,0-2.68.46-4.75,1.34-6.21l.02.02Z"/>
        <path class="cls-1" d="m36.81,38.5c.53,0,.97-.21,1.36-.62.37-.41.58-.9.58-1.45v-.18c0-.55-.18-1.04-.55-1.45-.39-.42-.83-.62-1.36-.65h-.3c-.53,0-.99.21-1.39.62-.37.42-.58.9-.58,1.45v.18c0,.55.18,1.04.55,1.45.39.42.85.65,1.36.65h.32Z"/>
        <path class="cls-1" d="m50.38,16.34c-.35-.37-.74-.55-1.2-.55h-.6c-.39,0-.71.09-.95.25l-3.95,2.22c-.62.32-.95.85-.95,1.57,0,.46.14.88.44,1.2.3.32.67.49,1.13.49.23,0,.51-.07.81-.21l2.52-1.32-.07,15.14h-3.14c-.41,0-.78.16-1.08.51-.3.32-.44.71-.44,1.18s.14.83.44,1.15.67.48,1.08.48l8.96.05c.42,0,.78-.16,1.11-.49.3-.32.46-.72.46-1.15,0-.46-.14-.85-.44-1.18-.3-.35-.67-.51-1.11-.51h-2.56l.07-17.52c0-.49-.16-.92-.48-1.29l-.05-.02Z"/>
      </g>
    </g>
  </g>
</svg>