<?xml version="1.0" encoding="utf-8"?>
<!-- Generator: Adobe Illustrator 27.5.0, SVG Export Plug-In . SVG Version: 6.00 Build 0)  -->
<svg version="1.1" id="_圖層_2" xmlns="http://www.w3.org/2000/svg" xmlns:xlink="http://www.w3.org/1999/xlink" x="0px" y="0px"
	 viewBox="0 0 76.9 70" style="enable-background:new 0 0 76.9 70;" xml:space="preserve">
<style type="text/css">
	.st0{clip-path:url(#SVGID_00000134934031409845558800000010283068153543204764_);}
	.st1{fill:#FFD600;}
</style>
<g id="_圖層_1-2">
	<g>
		<defs>
			<rect id="SVGID_1_" width="76.9" height="70"/>
		</defs>
		<clipPath id="SVGID_00000162338853020408353070000007203674468001175481_">
			<use xlink:href="#SVGID_1_"  style="overflow:visible;"/>
		</clipPath>
		<g style="clip-path:url(#SVGID_00000162338853020408353070000007203674468001175481_);">
			<g>
				<path class="st1" d="M64.7,28.2c0.5,0,0.9-0.4,0.9-0.9v-2.5c0-2.7-2.2-4.9-4.9-4.9h-0.1v-4.1c0-3.1-2.5-5.6-5.6-5.6H25.9
					c-0.5,0-0.9,0.4-0.9,0.9c0,0.5,0.4,0.9,0.9,0.9H55c2.1,0,3.8,1.7,3.8,3.8v25.6c0,2.1-1.7,3.8-3.8,3.8H27.2
					c-0.5,0-0.9,0.4-0.9,0.9s0.4,0.9,0.9,0.9h1.4l-3.3,2.9L22,52.8l1.1-6.6c0-0.3,0-0.5-0.2-0.7s-0.4-0.3-0.7-0.3h-5.3
					c-2.1,0-3.8-1.7-3.8-3.8V15.8c0-2.1,1.7-3.8,3.8-3.8h2.7c0.5,0,0.9-0.4,0.9-0.9c0-0.5-0.4-0.9-0.9-0.9h-2.7
					c-3.1,0-5.6,2.5-5.6,5.6v25.6c0,3.1,2.5,5.6,5.6,5.6h4.3L19.8,55c-0.1,0.4,0.1,0.7,0.5,0.9c0.1,0.1,0.3,0.1,0.4,0.1
					c0.2,0,0.4-0.1,0.6-0.2l4.8-4.3c0.5,0.2,1.1,0.3,1.6,0.3h20.5l8.6,7.6c0.2,0.1,0.4,0.2,0.6,0.2c0.1,0,0.3,0,0.4-0.1
					c0.3-0.2,0.5-0.6,0.5-0.9l-1.1-6.8h3.6c2.7,0,4.9-2.2,4.9-4.9V32.4c0-0.5-0.4-0.9-0.9-0.9c-0.5,0-0.9,0.4-0.9,0.9V47
					c0,1.7-1.4,3.1-3.1,3.1h-4.6c-0.3,0-0.5,0.1-0.7,0.3c-0.2,0.2-0.2,0.5-0.2,0.7l0.9,5.4l-5.2-4.6h0.9c0.5,0,0.9-0.4,0.9-0.9
					c0-0.5-0.4-0.9-0.9-0.9h-24l3.5-3.1H55c3.1,0,5.6-2.5,5.6-5.6V21.7h0.1c1.7,0,3.1,1.4,3.1,3.1v2.5
					C63.8,27.8,64.3,28.3,64.7,28.2L64.7,28.2L64.7,28.2z"/>
				<path class="st1" d="M28.9,37.6L28.9,37.6c1.8,0,3.3-0.7,4.3-2.2c1-1.4,1.5-3.5,1.5-6c0-2.6-0.5-4.6-1.5-6
					c-1-1.5-2.4-2.2-4.3-2.2h0c-1.8,0-3.3,0.7-4.3,2.2c-1,1.4-1.5,3.5-1.5,6s0.5,4.6,1.4,6C25.6,36.8,27.1,37.6,28.9,37.6L28.9,37.6
					z M26.4,25c0.6-1,1.4-1.5,2.5-1.5s1.9,0.5,2.5,1.5c0.6,1,0.9,2.5,0.9,4.4c0,1.9-0.3,3.4-0.9,4.4c-0.6,1-1.4,1.5-2.5,1.5
					c-1.1,0-1.9-0.5-2.5-1.5c-0.6-1-0.9-2.5-0.9-4.4C25.5,27.5,25.8,26,26.4,25L26.4,25L26.4,25z"/>
				<path class="st1" d="M37.3,37.5c0.4,0,0.7-0.1,1-0.4c0.3-0.3,0.4-0.6,0.4-1v-0.1c0-0.4-0.1-0.7-0.4-1c-0.3-0.3-0.6-0.4-1-0.5
					h-0.2c-0.4,0-0.7,0.1-1,0.4c-0.3,0.3-0.4,0.6-0.4,1V36c0,0.4,0.1,0.7,0.4,1c0.3,0.3,0.6,0.5,1,0.5H37.3L37.3,37.5z"/>
				<path class="st1" d="M46.9,21.8c-0.2-0.3-0.5-0.4-0.8-0.4h-0.4c-0.3,0-0.5,0.1-0.7,0.2l-2.8,1.6c-0.4,0.2-0.7,0.6-0.7,1.1
					c0,0.3,0.1,0.6,0.3,0.8c0.2,0.2,0.5,0.3,0.8,0.3c0.2,0,0.4,0,0.6-0.1l1.8-0.9l0,10.7h-2.2c-0.3,0-0.6,0.1-0.8,0.4
					c-0.2,0.2-0.3,0.5-0.3,0.8s0.1,0.6,0.3,0.8c0.2,0.2,0.5,0.3,0.8,0.3l6.3,0c0.3,0,0.6-0.1,0.8-0.3c0.2-0.2,0.3-0.5,0.3-0.8
					c0-0.3-0.1-0.6-0.3-0.8c-0.2-0.2-0.5-0.4-0.8-0.4h-1.8l0-12.4C47.3,22.4,47.1,22.1,46.9,21.8C46.9,21.8,46.9,21.8,46.9,21.8z"/>
			</g>
		</g>
	</g>
</g>
</svg>
