<?xml version="1.0" encoding="UTF-8"?>
<svg id="_圖層_2" data-name="圖層 2" xmlns="http://www.w3.org/2000/svg" viewBox="0 0 110 110">
  <defs>
    <style>
      .cls-1 {
        fill: #ffd600;
        stroke: #ffd600;
        stroke-miterlimit: 10;
        stroke-width: .25px;
      }

      .cls-2 {
        fill: none;
      }
    </style>
  </defs>
  <g id="_圖層_2-2" data-name=" 圖層 2">
    <g id="_圖層_1-2" data-name=" 圖層 1-2">
      <g>
        <rect class="cls-2" width="110" height="110"/>
        <g id="_241_Finance_Gold_Money_" data-name="241, Finance, Gold, Money,">
          <g>
            <path class="cls-1" d="m82.47,60.11c.68,0,1.22.55,1.22,1.22s-.55,1.22-1.22,1.22-1.22-.55-1.22-1.22.55-1.22,1.22-1.22Z"/>
            <path class="cls-1" d="m69.68,40.52c.68,0,1.22.55,1.22,1.22s-.55,1.22-1.22,1.22-1.22-.55-1.22-1.22.55-1.22,1.22-1.22Z"/>
            <path class="cls-1" d="m47.64,18.47c.68,0,1.22.55,1.22,1.22s-.55,1.22-1.22,1.22-1.22-.55-1.22-1.22.55-1.22,1.22-1.22Z"/>
            <path class="cls-1" d="m47.64,43.92c.68,0,1.22.55,1.22,1.22s-.55,1.22-1.22,1.22-1.22-.55-1.22-1.22.55-1.22,1.22-1.22Z"/>
            <path class="cls-1" d="m23.82,43.1c.68,0,1.22.55,1.22,1.22s-.55,1.22-1.22,1.22-1.22-.55-1.22-1.22.55-1.22,1.22-1.22Z"/>
            <path class="cls-1" d="m19.47,68.68c.68,0,1.22.55,1.22,1.22s-.55,1.22-1.22,1.22-1.22-.55-1.22-1.22.55-1.22,1.22-1.22Z"/>
            <path class="cls-1" d="m94.71,88.68l-4.22-11.02c-.14-.27-.41-.54-.82-.54h-7.89l-4.08-10.48c-.14-.27-.41-.54-.82-.54h-7.89l-4.08-10.48c-.14-.27-.41-.54-.82-.54h-16.06c-.27,0-.68.14-.82.54l-4.9,10.61h-7.07c-.27,0-.68.14-.82.54l-4.9,10.61h-7.07c-.27,0-.68.14-.82.54l-5.17,11.02c-.14.27-.14.54,0,.82.14.27.41.41.68.41h76.6c.27,0,.54-.14.68-.41.41-.54.41-.82.27-1.09Zm-14.83-11.56h-22.86l4.35-9.39h14.97l3.54,9.39Zm-11.43,9.66l-3.13-8.03h6.8l-3.67,8.03Zm-12.65-11.02l-3.13-8.03h6.8l-3.67,8.03Zm-7.21-19.05h14.97l3.54,9.39h-22.86l4.35-9.39Zm-12.79,11.02h14.97l3.54,9.39h-22.86l4.35-9.39Zm7.21,19.05l-3.13-8.03h6.8l-3.67,8.03Zm-24.22,1.36l4.35-9.39h14.97l3.54,9.39h-22.86Zm25.44,0l4.35-9.39h14.97l3.54,9.39h-22.86Zm25.58,0l4.35-9.39h14.97l3.54,9.39h-22.86Z"/>
            <path class="cls-1" d="m25.87,37.93h5.17v16.19c0,.41.41.82.82.82h7.62c.41,0,.82-.41.82-.82v-16.19h4.22c.41,0,.68-.27.82-.54s0-.68-.27-.95l-9.12-8.44c-.27-.27-.82-.27-1.09,0l-9.52,8.57c-.27.14-.41.54-.27.82.14.41.54.54.82.54Zm12.79,15.37h-5.99v-15.37h5.99v15.37Zm-3.27-23.54l7.07,6.53h-14.29l7.21-6.53Z"/>
            <path class="cls-1" d="m73.49,28.68h5.17v25.58c0,.41.41.82.82.82h7.62c.41,0,.82-.41.82-.82v-25.58h4.22c.41,0,.68-.27.82-.54.14-.27,0-.68-.27-.95l-9.12-8.57c-.27-.27-.82-.27-1.09,0l-9.52,8.57c-.27.27-.41.54-.27.95.14.27.54.54.82.54Zm12.79,24.63h-5.99v-24.63h5.99v24.63Zm-3.27-32.93l7.07,6.53h-14.29l7.21-6.53Z"/>
            <path class="cls-1" d="m64.23,32.08c2.86,0,5.17-2.31,5.17-5.17s-2.31-5.17-5.17-5.17-5.17,2.31-5.17,5.17,2.31,5.17,5.17,5.17Zm0-8.57c1.9,0,3.4,1.5,3.4,3.4s-1.63,3.4-3.4,3.4-3.4-1.5-3.4-3.4,1.5-3.4,3.4-3.4Z"/>
            <path class="cls-1" d="m23.42,65.14c2.31,0,4.22-1.9,4.22-4.22s-1.9-4.22-4.22-4.22-4.22,1.9-4.22,4.22,1.77,4.22,4.22,4.22Zm0-6.8c1.36,0,2.59,1.09,2.59,2.59,0,1.36-1.09,2.58-2.59,2.58-1.36,0-2.58-1.09-2.58-2.58,0-1.36,1.09-2.59,2.58-2.59Z"/>
          </g>
        </g>
      </g>
    </g>
  </g>
</svg>