<?xml version="1.0" encoding="UTF-8"?>
<svg id="_圖層_2" data-name="圖層 2" xmlns="http://www.w3.org/2000/svg" xmlns:xlink="http://www.w3.org/1999/xlink" viewBox="0 0 110 110">
  <defs>
    <style>
      .cls-1 {
        fill: #ffd600;
        stroke: #ffd600;
        stroke-miterlimit: 10;
        stroke-width: .25px;
      }

      .cls-2 {
        clip-path: url(#clippath);
      }

      .cls-3 {
        fill: none;
      }
    </style>
    <clipPath id="clippath">
      <rect class="cls-3" x="6.74" y="20" width="96.52" height="70"/>
    </clipPath>
  </defs>
  <g id="_圖層_1-2" data-name="圖層 1">
    <g>
      <g class="cls-2">
        <g>
          <path class="cls-1" d="m66.09,78.92h-7.17l.08-16.18,25.96,3.93c.58.08,1.12-.3,1.19-.89.05-.41-.13-.76-.43-.99,9.56-.63,17.16-8.54,17.22-18.28,0-.58-.46-1.06-1.04-1.06h-4.87c.53-1.45.79-2.94.81-4.49.03-7.33-5.91-13.31-13.23-13.34-7.33-.03-13.31,5.91-13.34,13.23,0,1.55.25,3.04.76,4.46h-4.87c-.58,0-1.06.46-1.06,1.04-.03,7.63,4.61,14.2,11.21,17.01l-18.28-2.76h-.05l.08-21.3h5.2c.43,0,.81-.23.99-.63.15-.4.08-.84-.23-1.14l-9.23-9.25c-.41-.4-1.07-.4-1.5,0l-9.3,9.18c-.3.31-.4.76-.23,1.14.15.41.53.66.96.66h5.2l-.08,20.56c-.1-.05-.2-.1-.33-.13l-20.23-3.37c7.78-2.13,13.56-9.23,13.59-17.67,0-.58-.46-1.07-1.04-1.07h-2.36c.91-.38,1.7-.99,2.33-1.88,1.09-1.55,1.62-3.7,1.65-6.49.02-2.79-.51-4.94-1.57-6.52-1.07-1.57-2.56-2.33-4.51-2.36-1.98,0-3.47.76-4.54,2.33-1.07,1.57-1.6,3.73-1.62,6.46-.02,2.74.51,4.89,1.57,6.49.61.91,1.4,1.55,2.33,1.93h-8.82c.91-.41,1.7-1.01,2.33-1.9,1.09-1.55,1.62-3.7,1.65-6.49.03-2.79-.51-4.94-1.57-6.52-1.07-1.57-2.56-2.33-4.51-2.36-1.98,0-3.47.76-4.54,2.33-1.06,1.57-1.6,3.73-1.62,6.46-.03,2.74.51,4.89,1.57,6.49.61.91,1.39,1.55,2.33,1.93h-6.59s.1-.08.15-.13c.2-.2.3-.46.3-.73s-.1-.56-.28-.76c-.2-.2-.43-.33-.68-.33h-2.21l.05-13.84c0-.33-.1-.61-.33-.84-.23-.23-.48-.35-.79-.35h-.48c-.25,0-.46.05-.63.18l-3.14,1.7c-.41.2-.61.56-.61,1.04,0,.3.1.56.28.76.18.2.43.3.71.3.15,0,.33-.05.53-.15l1.95-1.01s.18-.08.23-.03c.05.05.08.13.08.23l-.05,11.99h-2.66c-.28,0-.51.1-.68.31-.18.2-.28.46-.28.76s.1.53.28.74c.05.05.1.08.15.1h-.1c-.58,0-1.07.46-1.07,1.04-.05,10.14,8.19,18.46,18.33,18.48h.25c.08.43.41.79.86.86l23.68,3.96c.23.02.43,0,.63-.13l-.08,17.19h-7.17c-5.32-.05-9.68,4.26-9.68,9.58,0,.58.46,1.07,1.04,1.07l39.7.15c.58,0,1.07-.46,1.07-1.04,0-5.32-4.28-9.68-9.61-9.68h.03Zm21.96-33.54h-7.02c-1.37-1.11-2.15-2.76-2.15-4.51,0-3.14,2.59-5.68,5.7-5.65,3.14,0,5.68,2.59,5.65,5.7,0,1.75-.81,3.4-2.18,4.46Zm-3.45-15.67c6.16.03,11.16,5.07,11.13,11.23,0,1.55-.33,3.04-.96,4.46h-3.9c.91-1.32,1.49-2.84,1.49-4.49,0-4.31-3.47-7.81-7.76-7.83-4.31,0-7.81,3.47-7.83,7.76,0,1.62.56,3.17,1.47,4.46h-3.9c-.61-1.45-.94-2.94-.91-4.49.02-6.16,5.07-11.15,11.23-11.13l-.05.02Zm-16.35,17.67h12.42l3.85.05h.51l15.77.08c-.58,8.49-7.71,15.21-16.33,15.19-8.65-.03-15.69-6.82-16.2-15.31h-.02Zm-32.93-13.26c-.71-1.17-1.04-2.82-1.04-4.97s.38-3.78,1.09-4.94c.71-1.17,1.7-1.75,2.99-1.75s2.26.58,2.97,1.77c.71,1.17,1.04,2.81,1.04,4.94s-.38,3.8-1.09,4.97c-.71,1.17-1.7,1.75-2.99,1.75s-2.26-.58-2.97-1.77Zm-13.23-.05c-.71-1.17-1.04-2.84-1.04-4.97s.38-3.78,1.09-4.94c.71-1.17,1.7-1.75,2.99-1.75s2.26.58,2.97,1.77c.71,1.17,1.04,2.81,1.04,4.94s-.38,3.8-1.09,4.97c-.71,1.17-1.7,1.75-2.99,1.75s-2.26-.58-2.97-1.77Zm-12.88,5.5l32.53.13c-.58,8.49-7.71,15.21-16.33,15.19-8.65-.02-15.69-6.82-16.2-15.31Zm45.86-9.03l6.69,6.69h-6.46l-6.95-.05,6.74-6.64h-.03Zm-2,8.77h3.93l-.15,39.58h-3.93l.15-39.58Zm-16.96,48.1c.53-3.68,3.7-6.49,7.5-6.46h8.22l6.06.05h8.21c3.8.05,6.95,2.89,7.45,6.57l-37.45-.15Z"/>
          <path class="cls-1" d="m87.64,60.29s.18,0,.25-.03c4.79-1.14,8.75-4.77,10.32-9.43.18-.56-.1-1.14-.66-1.34-.56-.18-1.14.1-1.34.66-1.34,3.98-4.74,7.07-8.82,8.04-.56.13-.91.71-.79,1.27.13.48.53.81,1.01.81l.03.03Z"/>
          <path class="cls-1" d="m38.51,41.65c-.56-.18-1.14.1-1.34.66-1.34,3.98-4.74,7.07-8.82,8.04-.56.13-.91.71-.79,1.27.13.48.56.81,1.01.81.08,0,.18,0,.25-.03,4.79-1.14,8.75-4.77,10.32-9.43.18-.56-.1-1.14-.66-1.34l.03.03Z"/>
          <path class="cls-1" d="m45,71.01l-.3,2.08c-.08.58.3,1.11.89,1.19.58.08,1.12-.3,1.19-.89l.3-2.08c.08-.58-.3-1.12-.89-1.19-.58-.08-1.11.3-1.19.89Z"/>
          <path class="cls-1" d="m47.76,66.9l.3-2.08c.08-.58-.3-1.11-.89-1.19l-2.08-.3c-.58-.08-1.11.3-1.19.89-.08.58.3,1.11.89,1.19l1.04.15-.15,1.04c-.08.58.3,1.12.89,1.19.58.08,1.11-.3,1.19-.89Z"/>
          <path class="cls-1" d="m41.78,64.93c.58.08,1.12-.3,1.19-.89.08-.58-.3-1.11-.89-1.19l-3.02-.46c-.58-.08-1.11.3-1.19.89-.08.58.3,1.11.89,1.19l3.02.46Z"/>
          <path class="cls-1" d="m36.96,63.13c.08-.58-.3-1.12-.89-1.19l-2.08-.3c-.58-.08-1.12.3-1.19.89s.3,1.12.89,1.19l2.08.3c.58.08,1.12-.3,1.19-.89Z"/>
          <path class="cls-1" d="m81.89,67.54c-.66-.13-1.32-.28-1.95-.46-.56-.15-1.14.18-1.29.74-.15.56.18,1.14.74,1.29.71.2,1.44.38,2.15.51h.18c.51,0,.94-.36,1.04-.86.1-.58-.28-1.11-.86-1.22Z"/>
          <path class="cls-1" d="m89.57,67.41c-1.24.25-2.54.41-3.83.41-.58,0-1.04.48-1.04,1.07s.48,1.04,1.04,1.04c1.42,0,2.86-.18,4.23-.46.56-.13.94-.68.81-1.24-.13-.56-.66-.94-1.24-.81h.03Z"/>
          <path class="cls-1" d="m96.67,64.44c-1.07.71-2.21,1.34-3.4,1.83-.53.23-.79.84-.56,1.37.18.4.56.63.96.66.13,0,.28-.03.41-.08,1.32-.56,2.56-1.22,3.75-2.03.48-.33.61-.99.28-1.47-.33-.48-.99-.61-1.47-.28h.03Z"/>
          <path class="cls-1" d="m101,60.51c-.43.51-.89,1.01-1.34,1.47-.41.41-.41,1.07,0,1.5.2.2.48.3.73.3.28,0,.53-.1.74-.3.53-.51,1.01-1.07,1.5-1.62.38-.46.3-1.12-.15-1.5-.46-.38-1.11-.3-1.49.15h.03Z"/>
        </g>
      </g>
      <rect class="cls-3" width="110" height="110"/>
    </g>
  </g>
</svg>