<?xml version="1.0" encoding="UTF-8"?>
<svg id="_圖層_2" data-name="圖層 2" xmlns="http://www.w3.org/2000/svg" xmlns:xlink="http://www.w3.org/1999/xlink" viewBox="0 0 110 110">
  <defs>
    <style>
      .cls-1 {
        fill: #ffd600;
      }

      .cls-2 {
        clip-path: url(#clippath);
      }

      .cls-3 {
        fill: none;
      }
    </style>
    <clipPath id="clippath">
      <rect class="cls-3" x="19.73" y="17.5" width="70.54" height="75"/>
    </clipPath>
  </defs>
  <g id="_圖層_1-2" data-name="圖層 1">
    <g>
      <g class="cls-2">
        <g>
          <path class="cls-1" d="m89.36,62.61c-1.36-1.89-3.99-2.51-6.16-1.42l-16.74,8.35c-.26-1.38-.87-2.68-1.83-3.76-1.38-1.59-3.31-2.55-5.42-2.7l-13.53-.93c-2.29-.15-4.55.15-6.71.87-2.34.81-4.42,2.06-6.22,3.78l-1.49,1.51c-3.16-1.91-4.95-1.49-5.88-.74-.17.15-4.38,3.82-5.57,6.92-.23.62.06,1.32.7,1.55.15.06.28.08.42.08.49,0,.93-.3,1.12-.76.4-1.06,1.38-2.34,2.38-3.46.57,2.85,2.57,6.46,5.1,9.58,2.12,2.65,4.52,4.86,6.71,6.2,1.15.7,2.1,1.08,2.91,1.27-.42.45-.93.91-1.55,1.34-.53.38-.68,1.13-.3,1.68.23.34.6.51.98.51.23,0,.49-.06.68-.21,2.68-1.89,3.78-4.16,4.08-4.91.02-.06.06-.13.08-.19,0-.02.02-.06.02-.06v-.04c.26-.81.3-1.91-.11-3.46,1.87-1.42,3.82-2.72,5.01-3.21l10.13.7c4.44.32,8.9-.62,12.85-2.65l16.59-8.75c1.23-.64,2.15-1.78,2.46-3.14.32-1.36.04-2.78-.77-3.93h.02Zm-59.81,7.46l-2.46,2.51c-.55-1.66-.59-2.82-.19-3.14.28-.21,1.19-.17,2.65.64Zm11.36,16.27c-.04.15-.11.23-.17.28-.15.13-.57.19-1.32-.04.42-.4.96-.85,1.53-1.32.04.47.02.85-.04,1.06v.02Zm46.88-20.37c-.17.68-.62,1.25-1.23,1.57l-16.59,8.75c-3.57,1.85-7.58,2.68-11.58,2.4l-10.39-.72c-.15,0-.32,0-.47.06-2.55.87-8.14,5.2-10.37,7.39-1.89-1.23-3.91-3.14-5.78-5.44-1.47-1.81-2.53-3.53-3.29-5.03l6.33-6.46c1.53-1.44,3.34-2.55,5.33-3.23,1.87-.64,3.8-.89,5.76-.76l13.53.93c1.47.11,2.8.76,3.78,1.87.72.83,1.17,1.85,1.32,2.93l-7.26.3c-.66.02-1.17.6-1.15,1.25.02.64.55,1.15,1.19,1.15h.04l8.45-.34c.17,0,.34-.04.47-.13l18.35-9.15c1.13-.55,2.46-.26,3.14.68.4.57.55,1.27.38,1.95l.02.02Z"/>
          <path class="cls-1" d="m51.04,60.51c.47.45,1.21.45,1.66,0l13.81-13.4c.34-.34.47-.85.28-1.32-.19-.45-.62-.74-1.1-.74h-6.75v-3.7c0-.66-.53-1.19-1.19-1.19s-1.19.53-1.19,1.19v4.91c0,.66.53,1.19,1.19,1.19h5.01l-10.85,10.54-10.85-10.54h5.01c.66,0,1.19-.53,1.19-1.19v-9.39c0-.66-.53-1.19-1.19-1.19s-1.19.53-1.19,1.19v8.18h-6.75c-.49,0-.93.3-1.1.74-.19.45-.06.98.28,1.32l13.81,13.4h-.04Z"/>
          <path class="cls-1" d="m51.89,46.73c.66,0,1.19-.53,1.19-1.19v-9.07c0-.66-.53-1.19-1.19-1.19s-1.19.53-1.19,1.19v9.07c0,.66.53,1.19,1.19,1.19Z"/>
          <path class="cls-1" d="m55.37,33.3h6.76v3.7c0,.66.53,1.19,1.19,1.19s1.19-.53,1.19-1.19v-4.91c0-.66-.53-1.19-1.19-1.19h-5.01l10.85-10.54,10.85,10.54h-5.01c-.66,0-1.19.53-1.19,1.19v30.25c0,.66.53,1.19,1.19,1.19s1.19-.53,1.19-1.19v-29.04h6.76c.49,0,.93-.3,1.1-.74.19-.45.06-.98-.28-1.32l-13.74-13.4c-.47-.45-1.21-.45-1.66,0l-13.81,13.4c-.34.34-.47.85-.28,1.32.19.45.62.74,1.11.74h-.02Z"/>
          <path class="cls-1" d="m68.01,32.45v12.3c0,.66.53,1.19,1.19,1.19s1.19-.53,1.19-1.19v-12.3c0-.66-.53-1.19-1.19-1.19s-1.19.53-1.19,1.19Z"/>
        </g>
      </g>
      <rect class="cls-3" width="110" height="110"/>
    </g>
  </g>
</svg>