<?xml version="1.0" encoding="UTF-8"?>
<svg id="_圖層_2" data-name="圖層 2" xmlns="http://www.w3.org/2000/svg" xmlns:xlink="http://www.w3.org/1999/xlink" viewBox="0 0 110 110">
  <defs>
    <style>
      .cls-1 {
        fill: #ffd600;
        stroke: #ffd600;
        stroke-miterlimit: 10;
        stroke-width: .25px;
      }

      .cls-2 {
        clip-path: url(#clippath);
      }

      .cls-3 {
        fill: none;
      }
    </style>
    <clipPath id="clippath">
      <rect class="cls-3" x="16" y="16" width="78" height="78"/>
    </clipPath>
  </defs>
  <g id="_圖層_1-2" data-name="圖層 1">
    <g>
      <g class="cls-2">
        <g>
          <path class="cls-1" d="m80.73,26.11c-.54-.49-1.37-.44-1.86.12-.49.53-.44,1.37.12,1.86,7.68,6.83,12.08,16.64,12.08,26.91,0,1.95-.16,3.91-.46,5.83-.12.72.37,1.39,1.09,1.51h.21c.63,0,1.21-.46,1.3-1.11.33-2.04.51-4.16.51-6.25,0-11.02-4.73-21.55-12.97-28.89l-.02.02Z"/>
          <path class="cls-1" d="m88.76,71.08c-.65-.35-1.44-.09-1.79.56-6.26,11.97-18.53,19.41-32.06,19.41-16,0-29.87-10.25-34.55-25.5-.21-.7-.96-1.09-1.65-.88-.7.21-1.09.95-.89,1.65,5.03,16.36,19.93,27.36,37.09,27.36,14.51,0,27.68-8,34.41-20.85.35-.65.09-1.44-.56-1.79v.05Z"/>
          <path class="cls-1" d="m18.93,51.77c1.68-18.71,17.14-32.84,36-32.84.72,0,1.33-.58,1.33-1.33s-.58-1.33-1.33-1.33c-20.23,0-36.83,15.15-38.63,35.26-.07.72.47,1.37,1.21,1.44h.12c.67,0,1.26-.51,1.33-1.21h-.02Z"/>
          <path class="cls-1" d="m23.29,55c0,10.95,5.63,20.62,14.13,26.29.02,0,.05.05.07.07.02,0,.07,0,.09.02,4.98,3.28,10.94,5.21,17.35,5.21,17.44,0,31.64-14.18,31.64-31.59,0-.3-.05-.6-.05-.91,0-.05.02-.09,0-.14,0-.05-.02-.12-.05-.16-.33-8.55-4.05-16.22-9.89-21.73-.05-.05-.07-.12-.12-.16-.07-.05-.14-.09-.21-.12-5.64-5.16-13.11-8.34-21.35-8.34-17.44,0-31.64,14.18-31.64,31.59l.02-.02Zm32.97-28.87c6.61.3,12.67,2.81,17.42,6.83l-17.42,18.69v-25.52Zm5.08,29.98c.72-.02,1.3-.63,1.28-1.37-.02-.72-.63-1.32-1.37-1.28l-3.17.12,17.53-18.8c4.63,4.72,7.64,10.99,8.2,17.97l-4.98.16c-.72.02-1.3.63-1.28,1.37.02.72.61,1.28,1.33,1.28h.05l4.98-.16c-.19,15.78-13.11,28.59-28.96,28.59-5.42,0-10.48-1.51-14.83-4.11l2.75-4.14c.4-.6.23-1.44-.37-1.84-.61-.4-1.44-.23-1.84.37l-2.75,4.14c-7.22-5.28-11.94-13.76-11.94-23.36,0-15.5,12.29-28.17,27.66-28.87v28.47l-3.28,4.97c-.4.6-.23,1.44.37,1.84.23.14.49.21.72.21.42,0,.86-.21,1.12-.6l3.12-4.72,5.68-.19v-.05Z"/>
          <path class="cls-1" d="m59.52,67.09c-.44.35-.98.77-1.63,1.21-.91.63-1.58,1.14-2.03,1.53-.44.4-.84.86-1.14,1.35-.35.53-.54,1.14-.54,1.79,0,.3.09.53.26.7.16.19.4.26.65.26h6.52c.21,0,.37-.07.53-.23.14-.16.21-.35.21-.56s-.07-.42-.21-.58c-.14-.16-.33-.23-.53-.23h-5.85c.14-.33.4-.65.77-.98.37-.33.98-.81,1.84-1.44.98-.7,1.72-1.26,2.23-1.72.51-.44.93-.98,1.3-1.53.37-.6.58-1.28.58-2.02s-.16-1.39-.51-1.95c-.35-.56-.82-1.02-1.42-1.33-.58-.3-1.23-.46-1.98-.46-1.35,0-2.61.3-3.75.93-.26.16-.4.4-.4.7,0,.21.07.39.19.53.12.14.28.21.47.21.07,0,.19-.02.33-.09.91-.44,1.89-.65,2.89-.65.88,0,1.54.19,1.98.58.44.39.68.95.68,1.67,0,.77-.47,1.53-1.42,2.32h-.02Z"/>
          <path class="cls-1" d="m65.13,70.71h5.15v2.49c0,.23.07.44.23.6.16.16.33.26.56.26s.39-.09.56-.26c.16-.16.23-.37.23-.6v-2.49h1.26c.21,0,.37-.07.51-.21.14-.14.21-.33.21-.53s-.07-.4-.21-.54c-.14-.16-.3-.23-.49-.23h-1.26v-7.11c0-.3-.09-.56-.28-.77-.19-.21-.42-.3-.72-.3h-.35c-.16,0-.33.05-.49.12-.16.09-.28.19-.37.33l-5.31,7.37c-.14.19-.21.42-.21.67v.16c0,.3.09.53.3.74.19.21.44.3.7.3h-.02Zm.89-1.79l4.03-5.62s.09-.12.14-.12c0,0,.05,0,.07.05.02.05.02.07.02.14v5.81h-4.14c-.12,0-.19-.05-.19-.14,0-.05,0-.07.07-.14v.02Z"/>
        </g>
      </g>
      <rect class="cls-3" width="110" height="110"/>
    </g>
  </g>
</svg>