<?xml version="1.0" encoding="UTF-8"?>
<svg id="_圖層_2" data-name="圖層 2" xmlns="http://www.w3.org/2000/svg" xmlns:xlink="http://www.w3.org/1999/xlink" viewBox="0 0 110 110">
  <defs>
    <style>
      .cls-1 {
        fill: #ffd600;
      }

      .cls-2 {
        clip-path: url(#clippath);
      }

      .cls-3 {
        fill: none;
      }
    </style>
    <clipPath id="clippath">
      <rect class="cls-3" x="14.01" y="25" width="81.98" height="60"/>
    </clipPath>
  </defs>
  <g id="_圖層_1-2" data-name="圖層 1">
    <g>
      <g class="cls-2">
        <g>
          <path class="cls-1" d="m81.45,63.12c-.52,0-.95-.43-.95-.99v-1.77c0-.54.43-.99.95-.99s.95.43.95.99v1.77c0,.54-.43.99-.95.99Z"/>
          <path class="cls-1" d="m81.45,85c-8.03,0-14.54-6.78-14.54-15.1s6.52-15.12,14.54-15.12,14.54,6.77,14.54,15.12-6.52,15.1-14.54,15.1Zm0-28.26c-6.97,0-12.64,5.89-12.64,13.14s5.67,13.14,12.64,13.14,12.64-5.89,12.64-13.14-5.67-13.14-12.64-13.14Z"/>
          <path class="cls-1" d="m81.45,79.65c-3.02,0-5.48-2.42-5.48-5.37,0-.54.43-.99.95-.99s.95.43.95.99c0,1.88,1.6,3.41,3.58,3.41s3.58-1.53,3.58-3.41-1.6-3.41-3.58-3.41c-3.02,0-5.48-2.42-5.48-5.37s2.46-5.37,5.48-5.37,5.48,2.42,5.48,5.37c0,.54-.43.99-.95.99s-.95-.43-.95-.99c0-1.88-1.6-3.41-3.58-3.41s-3.58,1.53-3.58,3.41,1.6,3.41,3.58,3.41c3.02,0,5.48,2.42,5.48,5.37s-2.46,5.37-5.48,5.37Z"/>
          <path class="cls-1" d="m81.45,80.41c-.52,0-.95-.43-.95-.99v-1.6c0-.54.43-.99.95-.99s.95.43.95.99v1.6c0,.54-.43.99-.95.99Z"/>
          <path class="cls-1" d="m72.86,39.61s-.22,0-.3-.06l-10.55-3.82-11.35,3.71c-.37.11-.76,0-1.01-.3l-6.52-8.05c-.34-.41-.28-1.03.11-1.38.39-.35.99-.3,1.34.11l6.1,7.53,11.05-3.6c.19-.07.41-.07.6,0l10.36,3.75,8.18-6.62c.41-.32,1.01-.26,1.34.17.32.43.24,1.06-.17,1.38l-8.59,6.95c-.17.13-.37.22-.58.22v.02Z"/>
          <path class="cls-1" d="m81.9,48.24h-43.82c-.52,0-.95-.43-.95-.99v-16.79c0-.54.43-.99.95-.99s.95.43.95.99v15.81h42.85c.52,0,.95.43.95.99s-.43.99-.95.99l.02-.02Z"/>
          <path class="cls-1" d="m26.18,47.63c-4.81,0-8.74-4.08-8.74-9.08s3.93-9.06,8.74-9.06,8.74,4.08,8.74,9.08-3.93,9.08-8.74,9.08v-.02Zm0-16.18c-3.78,0-6.84,3.19-6.84,7.12s3.06,7.12,6.84,7.12,6.84-3.19,6.84-7.12-3.06-7.12-6.84-7.12Z"/>
          <path class="cls-1" d="m70.73,54.9H18.39c-.52,0-.95-.43-.95-.99s.43-.99.95-.99h52.34c.52,0,.95.43.95.99s-.43.99-.95.99Z"/>
          <path class="cls-1" d="m65.25,62.37H18.39c-.52,0-.95-.43-.95-.99s.43-.99.95-.99h46.86c.52,0,.95.43.95.99s-.43.99-.95.99Z"/>
          <path class="cls-1" d="m62.51,69.81H18.39c-.52,0-.95-.43-.95-.99s.43-.99.95-.99h44.12c.52,0,.95.43.95.99s-.43.99-.95.99Z"/>
          <path class="cls-1" d="m43.03,43.12h-1.9v1.96h1.9v-1.96Z"/>
          <path class="cls-1" d="m74.44,45.11h-3.93v-1.96h3.93v1.96Zm-7.85,0h-3.93v-1.96h3.93v1.96Zm-7.85,0h-3.93v-1.96h3.93v1.96Zm-7.85,0h-3.93v-1.96h3.93v1.96Z"/>
          <path class="cls-1" d="m80.26,43.12h-1.9v1.96h1.9v-1.96Z"/>
          <path class="cls-1" d="m26.18,39.54c-.19,0-.41-.06-.56-.19-.24-.19-.39-.47-.39-.78v-8.09c0-.54.43-.99.95-.99.28,0,.56,0,.82.04h.19c.26.06.43.09.6.13.11,0,.2.04.3.07.17.04.32.09.5.13.13.04.21.07.3.09.17.06.32.13.5.19.13.04.19.07.26.11.24.11.45.22.67.35.06.04.13.07.19.11.19.13.34.22.47.3.11.07.19.13.28.22.13.09.22.17.32.26.11.09.22.17.32.28.09.07.17.15.26.24.11.11.22.22.3.32l.13.15c.43.5.78.97,1.06,1.47l.11.17c.09.15.17.32.24.5l.09.22c.07.17.15.34.22.52l.04.15c.09.24.15.41.19.6.15.52-.15,1.06-.65,1.23l-7.47,2.27s-.17.04-.26.04v-.09Zm.95-8.03v5.72l5.29-1.62s0-.04-.02-.07l-.09-.17c-.07-.13-.13-.26-.2-.37l-.09-.15c-.22-.39-.5-.76-.8-1.1l-.15-.17-.24-.24c-.09-.06-.15-.13-.22-.19-.09-.06-.17-.15-.24-.22-.09-.07-.15-.13-.24-.2-.09-.06-.17-.13-.24-.17-.11-.07-.22-.13-.32-.19l-.09-.07-.11-.07c-.17-.11-.34-.19-.54-.26l-.11-.04-.09-.04c-.13-.04-.26-.11-.39-.15l-.19-.07c-.15-.04-.28-.09-.41-.11l-.24-.04c-.11-.02-.22-.04-.32-.07l.02.04Z"/>
          <path class="cls-1" d="m64.9,76.78H14.96c-.52,0-.95-.43-.95-.99V25.99c0-.54.43-.99.95-.99h70.85c.52,0,.95.43.95.99v26.32c0,.54-.43.99-.95.99s-.95-.43-.95-.99v-25.35H15.91v47.83h49c.52,0,.95.43.95.99s-.43.99-.95.99Z"/>
        </g>
      </g>
      <rect class="cls-3" width="110" height="110"/>
    </g>
  </g>
</svg>