<?xml version="1.0" encoding="UTF-8"?>
<svg id="_圖層_2" data-name="圖層 2" xmlns="http://www.w3.org/2000/svg" xmlns:xlink="http://www.w3.org/1999/xlink" viewBox="0 0 110 110">
  <defs>
    <style>
      .cls-1 {
        fill: #ffd600;
      }

      .cls-2 {
        clip-path: url(#clippath);
      }

      .cls-3 {
        fill: none;
      }
    </style>
    <clipPath id="clippath">
      <rect class="cls-3" x="9" y="16" width="92" height="78"/>
    </clipPath>
  </defs>
  <g id="_圖層_1-2" data-name="圖層 1">
    <g>
      <g class="cls-2">
        <g>
          <path class="cls-1" d="m58.63,94c-14.63,0-26.52-11.84-26.52-26.4s11.89-26.4,26.52-26.4,26.52,11.84,26.52,26.4-11.89,26.4-26.52,26.4Zm0-50.46c-13.34,0-24.17,10.81-24.17,24.06s10.86,24.06,24.17,24.06,24.17-10.81,24.17-24.06-10.86-24.06-24.17-24.06Z"/>
          <path class="cls-1" d="m58.63,94c-7.77,0-13.87-11.58-13.87-26.4s6.09-26.4,13.87-26.4,13.87,11.59,13.87,26.4-6.09,26.4-13.87,26.4Zm0-50.46c-6.26,0-11.55,11.01-11.55,24.06s5.29,24.06,11.55,24.06,11.55-11.01,11.55-24.06-5.29-24.06-11.55-24.06Z"/>
          <path class="cls-1" d="m58.63,81.41c-14.86,0-26.52-6.07-26.52-13.8s11.64-13.81,26.52-13.81,26.52,6.07,26.52,13.81-11.64,13.8-26.52,13.8Zm0-25.3c-13.11,0-24.17,5.27-24.17,11.49s11.06,11.49,24.17,11.49,24.17-5.27,24.17-11.49-11.06-11.49-24.17-11.49Z"/>
          <path class="cls-1" d="m58.63,94c-.64,0-1.17-.53-1.17-1.17v-50.46c0-.64.53-1.17,1.17-1.17s1.17.53,1.17,1.17v50.46c0,.64-.53,1.17-1.17,1.17Z"/>
          <path class="cls-1" d="m83.98,68.77h-50.69c-.64,0-1.17-.53-1.17-1.17s.53-1.17,1.17-1.17h50.69c.64,0,1.17.53,1.17,1.17s-.53,1.17-1.17,1.17Z"/>
          <path class="cls-1" d="m85.27,53.98h-10.99c-.64,0-1.17-.53-1.17-1.17s.53-1.17,1.17-1.17h9.48l-1.82-6.8c-.09-.34,0-.71.21-1.01.23-.27.55-.46.92-.46h16.77c.64,0,1.17.53,1.17,1.17s-.53,1.17-1.17,1.17h-15.25l1.82,6.8c.09.34,0,.71-.21,1.01-.23.27-.55.46-.92.46Z"/>
          <path class="cls-1" d="m58.63,50.82h-9.43c-.34,0-.67-.16-.9-.41l-9.61-11.56h-11.02c-.64,0-1.17-.53-1.17-1.17s.53-1.17,1.17-1.17h11.57c.35,0,.67.16.9.41l9.61,11.56h8.9c.64,0,1.17.53,1.17,1.17s-.53,1.17-1.17,1.17h-.02Z"/>
          <path class="cls-1" d="m91.5,29.3c-.64,0-1.17-.53-1.17-1.17v-.87c0-.64.53-1.17,1.17-1.17s1.17.53,1.17,1.17v.87c0,.64-.53,1.17-1.17,1.17Z"/>
          <path class="cls-1" d="m91.5,41.94c-5.24,0-9.5-4.24-9.5-9.46,0-2.66,1.13-5.22,3.13-7.01.48-.43,1.22-.39,1.66.09s.39,1.21-.09,1.65c-1.49,1.35-2.35,3.27-2.35,5.29,0,3.94,3.22,7.12,7.15,7.12s7.15-3.21,7.15-7.12-3.22-7.12-7.15-7.12c-.64,0-1.17-.53-1.17-1.17s.53-1.17,1.17-1.17c5.24,0,9.5,4.24,9.5,9.46s-4.26,9.45-9.5,9.45v-.02Z"/>
          <path class="cls-1" d="m91.5,38c-1.93,0-3.52-1.49-3.52-3.34,0-.64.53-1.17,1.17-1.17s1.17.53,1.17,1.17c0,.55.53,1.01,1.17,1.01s1.17-.46,1.17-1.01-.53-1.01-1.17-1.01c-1.93,0-3.52-1.49-3.52-3.34s1.56-3.34,3.52-3.34,3.5,1.49,3.5,3.34c0,.64-.53,1.17-1.17,1.17s-1.17-.53-1.17-1.17c0-.55-.53-1.01-1.17-1.01s-1.17.46-1.17,1.01.53,1.01,1.17,1.01c1.93,0,3.5,1.49,3.5,3.34s-1.56,3.34-3.5,3.34h.02Z"/>
          <path class="cls-1" d="m91.5,38.99c-.64,0-1.17-.53-1.17-1.17v-1.01c0-.64.53-1.17,1.17-1.17s1.17.53,1.17,1.17v1.01c0,.64-.53,1.17-1.17,1.17Z"/>
          <path class="cls-1" d="m42.72,83.4h-10.99c-.39,0-.76-.18-.97-.5l-4.44-6.57H10.17c-.64,0-1.17-.53-1.17-1.17s.53-1.17,1.17-1.17h16.77c.39,0,.76.18.97.5l4.44,6.57h10.37c.64,0,1.17.53,1.17,1.17s-.53,1.17-1.17,1.17Z"/>
          <path class="cls-1" d="m18.5,59.86c-.64,0-1.17-.53-1.17-1.17v-.87c0-.64.53-1.17,1.17-1.17s1.17.53,1.17,1.17v.87c0,.64-.53,1.17-1.17,1.17Z"/>
          <path class="cls-1" d="m18.5,72.5c-5.24,0-9.5-4.23-9.5-9.46,0-2.65,1.13-5.22,3.13-7.01.48-.43,1.22-.39,1.66.09s.39,1.21-.09,1.65c-1.49,1.35-2.35,3.27-2.35,5.29,0,3.94,3.22,7.12,7.15,7.12s7.15-3.21,7.15-7.12-3.22-7.12-7.15-7.12c-.64,0-1.17-.53-1.17-1.17s.53-1.17,1.17-1.17c5.24,0,9.5,4.23,9.5,9.46s-4.26,9.46-9.5,9.46v-.02Z"/>
          <path class="cls-1" d="m18.5,68.57c-1.93,0-3.5-1.49-3.5-3.34,0-.64.53-1.17,1.17-1.17s1.17.53,1.17,1.17c0,.55.53,1.01,1.17,1.01s1.17-.46,1.17-1.01-.53-1.01-1.17-1.01c-1.93,0-3.5-1.49-3.5-3.34s1.56-3.34,3.5-3.34,3.5,1.49,3.5,3.34c0,.64-.53,1.17-1.17,1.17s-1.17-.53-1.17-1.17c0-.55-.53-1.01-1.17-1.01s-1.17.46-1.17,1.01.53,1.01,1.17,1.01c1.93,0,3.5,1.49,3.5,3.34s-1.56,3.34-3.5,3.34Z"/>
          <path class="cls-1" d="m18.5,69.57c-.64,0-1.17-.53-1.17-1.17v-1.01c0-.64.53-1.17,1.17-1.17s1.17.53,1.17,1.17v1.01c0,.64-.53,1.17-1.17,1.17Z"/>
          <path class="cls-1" d="m34.32,22.25c-.64,0-1.17-.53-1.17-1.17v-.87c0-.64.53-1.17,1.17-1.17s1.17.53,1.17,1.17v.87c0,.64-.53,1.17-1.17,1.17Z"/>
          <path class="cls-1" d="m34.32,34.89c-5.24,0-9.5-4.24-9.5-9.46,0-2.66,1.13-5.22,3.13-7.01.48-.43,1.22-.39,1.66.09.44.48.39,1.21-.09,1.65-1.49,1.35-2.35,3.27-2.35,5.29,0,3.94,3.22,7.12,7.15,7.12s7.15-3.21,7.15-7.12-3.22-7.12-7.15-7.12c-.64,0-1.17-.53-1.17-1.17s.53-1.17,1.17-1.17c5.22,0,9.5,4.23,9.5,9.46s-4.26,9.45-9.5,9.45v-.02Z"/>
          <path class="cls-1" d="m34.32,30.95c-1.93,0-3.5-1.49-3.5-3.34,0-.64.53-1.17,1.17-1.17s1.17.53,1.17,1.17c0,.55.53,1.01,1.17,1.01s1.17-.46,1.17-1.01-.53-1.01-1.17-1.01c-1.93,0-3.5-1.49-3.5-3.34s1.56-3.34,3.5-3.34,3.5,1.49,3.5,3.34c0,.64-.53,1.17-1.17,1.17s-1.17-.53-1.17-1.17c0-.55-.53-1.01-1.17-1.01s-1.17.46-1.17,1.01.53,1.01,1.17,1.01c1.93,0,3.5,1.49,3.5,3.34s-1.56,3.34-3.5,3.34Z"/>
          <path class="cls-1" d="m34.32,31.96c-.64,0-1.17-.53-1.17-1.17v-1.01c0-.64.53-1.17,1.17-1.17s1.17.53,1.17,1.17v1.01c0,.64-.53,1.17-1.17,1.17Z"/>
        </g>
      </g>
      <rect class="cls-3" width="110" height="110"/>
    </g>
  </g>
</svg>