<svg width="32" height="35" viewBox="0 0 32 35" fill="none" xmlns="http://www.w3.org/2000/svg">
<g clip-path="url(#clip0_83_179)">
<path d="M28.99 10.25C28.85 10.25 28.72 10.27 28.58 10.29C27.17 4.39 21.95 0 15.73 0C9.51 0 4.29 4.39 2.87 10.29C2.75 10.27 2.62 10.25 2.5 10.25C1.12 10.25 0 11.37 0 12.75V15.75C0 17.13 1.12 18.25 2.5 18.25C2.8 18.25 3.09 18.19 3.36 18.09C4.1 19.94 5.89 21.25 8 21.25C8.55 21.25 9 20.8 9 20.25C9 19.7 8.55 19.25 8 19.25C6.35 19.25 5 17.9 5 16.25V13.08C5.22 7.21 9.94 2.5 15.73 2.5C21.52 2.5 26.48 7.43 26.48 13.49C26.48 13.51 26.49 13.54 26.49 13.56V15.75C26.49 17.13 27.61 18.25 28.99 18.25C30.37 18.25 31.49 17.13 31.49 15.75V12.75C31.49 11.37 30.37 10.25 28.99 10.25Z" fill="white"/>
<path d="M23.9399 24.24H21.0099C20.3599 24.24 19.7399 24.56 19.3699 25.09L17.3199 28.03C16.5199 29.18 14.8099 29.17 14.0299 28.01L12.0699 25.12C11.6999 24.57 11.0799 24.24 10.4199 24.24H7.53995C3.82995 24.24 0.819946 27.25 0.819946 30.96V33.94C0.819946 34.49 1.26995 34.94 1.81995 34.94H29.6799C30.2299 34.94 30.6799 34.49 30.6799 33.94V30.96C30.6799 27.25 27.6699 24.24 23.9599 24.24H23.9399ZM15.7299 21.74C20.2799 21.74 23.9699 18.05 23.9699 13.5C23.9699 8.95001 20.2799 5.26001 15.7299 5.26001C11.1799 5.26001 7.48995 8.95001 7.48995 13.5C7.48995 18.05 11.1799 21.74 15.7299 21.74Z" fill="white"/>
</g>
<defs>
<clipPath id="clip0_83_179">
<rect width="31.49" height="34.94" fill="white"/>
</clipPath>
</defs>
</svg>
