<?xml version="1.0" encoding="UTF-8"?>
<svg id="_圖層_2" data-name="圖層 2" xmlns="http://www.w3.org/2000/svg" xmlns:xlink="http://www.w3.org/1999/xlink" viewBox="0 0 35 35">
  <defs>
    <style>
      .cls-1 {
        fill: #d8d8d8;
      }

      .cls-2 {
        clip-path: url(#clippath);
      }

      .cls-3 {
        fill: none;
      }
    </style>
    <clipPath id="clippath">
      <rect class="cls-3" x="7.2" y="1.32" width="20.59" height="32.36"/>
    </clipPath>
  </defs>
  <g id="_圖層_2-2" data-name=" 圖層 2">
    <g>
      <rect class="cls-3" width="35" height="35"/>
      <g class="cls-2">
        <path class="cls-1" d="m27.53,3.4c-.44-1.02-1.35-1.78-2.47-2.01-.23-.04-.45-.07-.7-.07h-13.73c-.24,0-.47.03-.7.07-.44.1-.86.26-1.23.51-.18.12-.35.26-.51.41-.3.3-.56.68-.74,1.08-.18.41-.26.85-.26,1.33v25.54c0,.47.1.92.26,1.33.17.41.43.77.74,1.08.16.16.32.28.51.41.37.25.78.42,1.23.51.23.04.45.07.7.07h13.73c.25,0,.47-.03.7-.07,1.12-.23,2.03-1,2.47-2.01.17-.41.26-.85.26-1.33V4.72c0-.47-.1-.92-.26-1.33h0Zm-9.17,28.15h-1.72c-.94,0-1.72-.76-1.72-1.71s.77-1.71,1.72-1.71h1.72c.94,0,1.72.76,1.72,1.71s-.77,1.71-1.72,1.71Zm6-24.27v17.89c0,.47-.38.85-.86.85h-12.01c-.47,0-.86-.38-.86-.85V7.28c0-.47.38-.85.86-.85h12.01c.47,0,.86.38.86.85Z"/>
      </g>
    </g>
  </g>
</svg>