<?xml version="1.0" encoding="UTF-8"?>
<svg id="_圖層_2" data-name="圖層 2" xmlns="http://www.w3.org/2000/svg" viewBox="0 0 35 35">
  <defs>
    <style>
      .cls-1 {
        fill: #d8d8d8;
      }

      .cls-2 {
        fill: none;
      }
    </style>
  </defs>
  <g id="_圖層_2-2" data-name=" 圖層 2">
    <g>
      <rect class="cls-2" width="35" height="35"/>
      <path class="cls-1" d="m29.35,7.93H5.65c-1.23,0-2.36.85-2.52,2.07-.01.12-.02.24-.02.37v13.78c0,1.62,1.34,2.92,3,2.92h22.78c1.66,0,3-1.31,3-2.92v-13.78c0-.12,0-.24-.02-.37-.15-1.22-1.3-2.07-2.52-2.07Zm-15.37,9.38c-.33.42-.94.5-1.36.17l-7.01-5.45c-.42-.33-.5-.94-.17-1.36.19-.24.48-.38.76-.38.21,0,.42.07.6.21l7.01,5.45c.42.33.5.94.17,1.36Zm-.03,1.68c0-.6.48-1.07,1.07-1.07h5.72c.6,0,1.07.48,1.07,1.07s-.48,1.07-1.07,1.07h-5.72c-.6,0-1.07-.48-1.07-1.07Zm15.44-6.96l-7.01,5.45c-.42.33-1.04.25-1.36-.17-.33-.42-.25-1.04.17-1.36l7.01-5.45c.18-.14.39-.21.6-.21.29,0,.58.13.76.38.33.42.25,1.04-.17,1.36Z"/>
    </g>
  </g>
</svg>